<?xml version="1.0" encoding="UTF-8" standalone="no"?>
<!DOCTYPE svg PUBLIC "-//W3C//DTD SVG 1.1//EN"
 "http://www.w3.org/Graphics/SVG/1.1/DTD/svg11.dtd">
<!-- Generated by graphviz version 2.40.1 (20161225.0304)
 -->
<!-- Title: snakemake_dag Pages: 1 -->
<svg width="427pt" height="476pt"
 viewBox="0.00 0.00 427.00 476.00" xmlns="http://www.w3.org/2000/svg" xmlns:xlink="http://www.w3.org/1999/xlink">
<g id="graph0" class="graph" transform="scale(1 1) rotate(0) translate(4 472)">
<title>snakemake_dag</title>
<polygon fill="#ffffff" stroke="transparent" points="-4,4 -4,-472 423,-472 423,4 -4,4"/>
<!-- 0 -->
<g id="node1" class="node">
<title>0</title>
<path fill="none" stroke="#56d882" stroke-width="2" d="M131,-108C131,-108 12,-108 12,-108 6,-108 0,-102 0,-96 0,-96 0,-84 0,-84 0,-78 6,-72 12,-72 12,-72 131,-72 131,-72 137,-72 143,-78 143,-84 143,-84 143,-96 143,-96 143,-102 137,-108 131,-108"/>
<text text-anchor="middle" x="71.5" y="-87.5" font-family="sans" font-size="10.00" fill="#000000">plot_distance_distribution</text>
</g>
<!-- 1 -->
<g id="node2" class="node">
<title>1</title>
<path fill="none" stroke="#56d8a9" stroke-width="2" d="M238,-36C238,-36 105,-36 105,-36 99,-36 93,-30 93,-24 93,-24 93,-12 93,-12 93,-6 99,0 105,0 105,0 238,0 238,0 244,0 250,-6 250,-12 250,-12 250,-24 250,-24 250,-30 244,-36 238,-36"/>
<text text-anchor="middle" x="171.5" y="-15.5" font-family="sans" font-size="10.00" fill="#000000">copy_number_correct_500kb</text>
</g>
<!-- 2 -->
<g id="node3" class="node">
<title>2</title>
<path fill="none" stroke="#5682d8" stroke-width="2" d="M407,-36C407,-36 280,-36 280,-36 274,-36 268,-30 268,-24 268,-24 268,-12 268,-12 268,-6 274,0 280,0 280,0 407,0 407,0 413,0 419,-6 419,-12 419,-12 419,-24 419,-24 419,-30 413,-36 407,-36"/>
<text text-anchor="middle" x="343.5" y="-15.5" font-family="sans" font-size="10.00" fill="#000000">copy_number_correct_40kb</text>
</g>
<!-- 3 -->
<g id="node4" class="node">
<title>3</title>
<path fill="none" stroke="#59d856" stroke-width="2" stroke-dasharray="1,5" d="M117.5,-180C117.5,-180 41.5,-180 41.5,-180 35.5,-180 29.5,-174 29.5,-168 29.5,-168 29.5,-156 29.5,-156 29.5,-150 35.5,-144 41.5,-144 41.5,-144 117.5,-144 117.5,-144 123.5,-144 129.5,-150 129.5,-156 129.5,-156 129.5,-168 129.5,-168 129.5,-174 123.5,-180 117.5,-180"/>
<text text-anchor="middle" x="79.5" y="-159.5" font-family="sans" font-size="10.00" fill="#000000">merge_distances</text>
</g>
<!-- 3&#45;&gt;0 -->
<g id="edge1" class="edge">
<title>3&#45;&gt;0</title>
<path fill="none" stroke="#c0c0c0" stroke-width="2" d="M77.4813,-143.8314C76.6257,-136.131 75.6083,-126.9743 74.6574,-118.4166"/>
<polygon fill="#c0c0c0" stroke="#c0c0c0" stroke-width="2" points="78.1289,-117.9656 73.5459,-108.4133 71.1717,-118.7386 78.1289,-117.9656"/>
</g>
<!-- 4 -->
<g id="node5" class="node">
<title>4</title>
<path fill="none" stroke="#d85656" stroke-width="2" d="M216,-108C216,-108 173,-108 173,-108 167,-108 161,-102 161,-96 161,-96 161,-84 161,-84 161,-78 167,-72 173,-72 173,-72 216,-72 216,-72 222,-72 228,-78 228,-84 228,-84 228,-96 228,-96 228,-102 222,-108 216,-108"/>
<text text-anchor="middle" x="194.5" y="-87.5" font-family="sans" font-size="10.00" fill="#000000">bin_500kb</text>
</g>
<!-- 4&#45;&gt;1 -->
<g id="edge2" class="edge">
<title>4&#45;&gt;1</title>
<path fill="none" stroke="#c0c0c0" stroke-width="2" d="M188.6961,-71.8314C186.2092,-64.0463 183.2469,-54.7729 180.4875,-46.1347"/>
<polygon fill="#c0c0c0" stroke="#c0c0c0" stroke-width="2" points="183.7591,-44.874 177.382,-36.4133 177.091,-47.0041 183.7591,-44.874"/>
</g>
<!-- 5 -->
<g id="node6" class="node">
<title>5</title>
<path fill="none" stroke="#d8ac56" stroke-width="2" d="M340,-108C340,-108 303,-108 303,-108 297,-108 291,-102 291,-96 291,-96 291,-84 291,-84 291,-78 297,-72 303,-72 303,-72 340,-72 340,-72 346,-72 352,-78 352,-84 352,-84 352,-96 352,-96 352,-102 346,-108 340,-108"/>
<text text-anchor="middle" x="321.5" y="-87.5" font-family="sans" font-size="10.00" fill="#000000">bin_40kb</text>
</g>
<!-- 5&#45;&gt;2 -->
<g id="edge3" class="edge">
<title>5&#45;&gt;2</title>
<path fill="none" stroke="#c0c0c0" stroke-width="2" d="M327.0515,-71.8314C329.4303,-64.0463 332.2638,-54.7729 334.9033,-46.1347"/>
<polygon fill="#c0c0c0" stroke="#c0c0c0" stroke-width="2" points="338.2987,-46.9996 337.8737,-36.4133 331.6042,-44.954 338.2987,-46.9996"/>
</g>
<!-- 6 -->
<g id="node7" class="node">
<title>6</title>
<path fill="none" stroke="#56a9d8" stroke-width="2" stroke-dasharray="1,5" d="M129,-252C129,-252 58,-252 58,-252 52,-252 46,-246 46,-240 46,-240 46,-228 46,-228 46,-222 52,-216 58,-216 58,-216 129,-216 129,-216 135,-216 141,-222 141,-228 141,-228 141,-240 141,-240 141,-246 135,-252 129,-252"/>
<text text-anchor="middle" x="93.5" y="-231.5" font-family="sans" font-size="10.00" fill="#000000">filter_near_sites</text>
</g>
<!-- 6&#45;&gt;3 -->
<g id="edge4" class="edge">
<title>6&#45;&gt;3</title>
<path fill="none" stroke="#c0c0c0" stroke-width="2" d="M89.9672,-215.8314C88.4699,-208.131 86.6895,-198.9743 85.0255,-190.4166"/>
<polygon fill="#c0c0c0" stroke="#c0c0c0" stroke-width="2" points="88.4248,-189.5614 83.0804,-180.4133 81.5535,-190.8975 88.4248,-189.5614"/>
</g>
<!-- 7 -->
<g id="node8" class="node">
<title>7</title>
<path fill="none" stroke="#80d856" stroke-width="2" stroke-dasharray="1,5" d="M222.5,-180C222.5,-180 166.5,-180 166.5,-180 160.5,-180 154.5,-174 154.5,-168 154.5,-168 154.5,-156 154.5,-156 154.5,-150 160.5,-144 166.5,-144 166.5,-144 222.5,-144 222.5,-144 228.5,-144 234.5,-150 234.5,-156 234.5,-156 234.5,-168 234.5,-168 234.5,-174 228.5,-180 222.5,-180"/>
<text text-anchor="middle" x="194.5" y="-159.5" font-family="sans" font-size="10.00" fill="#000000">merge_sams</text>
</g>
<!-- 6&#45;&gt;7 -->
<g id="edge8" class="edge">
<title>6&#45;&gt;7</title>
<path fill="none" stroke="#c0c0c0" stroke-width="2" d="M118.9866,-215.8314C131.6659,-206.7927 147.1596,-195.7476 160.8055,-186.0198"/>
<polygon fill="#c0c0c0" stroke="#c0c0c0" stroke-width="2" points="162.9105,-188.8176 169.0216,-180.1628 158.8471,-183.1176 162.9105,-188.8176"/>
</g>
<!-- 7&#45;&gt;4 -->
<g id="edge5" class="edge">
<title>7&#45;&gt;4</title>
<path fill="none" stroke="#c0c0c0" stroke-width="2" d="M194.5,-143.8314C194.5,-136.131 194.5,-126.9743 194.5,-118.4166"/>
<polygon fill="#c0c0c0" stroke="#c0c0c0" stroke-width="2" points="198.0001,-118.4132 194.5,-108.4133 191.0001,-118.4133 198.0001,-118.4132"/>
</g>
<!-- 7&#45;&gt;5 -->
<g id="edge6" class="edge">
<title>7&#45;&gt;5</title>
<path fill="none" stroke="#c0c0c0" stroke-width="2" d="M226.5475,-143.8314C243.3174,-134.324 264.0028,-122.5968 281.7812,-112.5177"/>
<polygon fill="#c0c0c0" stroke="#c0c0c0" stroke-width="2" points="283.804,-115.3944 290.7771,-107.4177 280.3517,-109.3049 283.804,-115.3944"/>
</g>
<!-- 8 -->
<g id="node9" class="node">
<title>8</title>
<path fill="none" stroke="#afd856" stroke-width="2" d="M131.5,-324C131.5,-324 101.5,-324 101.5,-324 95.5,-324 89.5,-318 89.5,-312 89.5,-312 89.5,-300 89.5,-300 89.5,-294 95.5,-288 101.5,-288 101.5,-288 131.5,-288 131.5,-288 137.5,-288 143.5,-294 143.5,-300 143.5,-300 143.5,-312 143.5,-312 143.5,-318 137.5,-324 131.5,-324"/>
<text text-anchor="middle" x="116.5" y="-309" font-family="sans" font-size="10.00" fill="#000000">split</text>
<text text-anchor="middle" x="116.5" y="-298" font-family="sans" font-size="10.00" fill="#000000">n: ...</text>
</g>
<!-- 8&#45;&gt;6 -->
<g id="edge7" class="edge">
<title>8&#45;&gt;6</title>
<path fill="none" stroke="#c0c0c0" stroke-width="2" d="M110.6961,-287.8314C108.2092,-280.0463 105.2469,-270.7729 102.4875,-262.1347"/>
<polygon fill="#c0c0c0" stroke="#c0c0c0" stroke-width="2" points="105.7591,-260.874 99.382,-252.4133 99.091,-263.0041 105.7591,-260.874"/>
</g>
<!-- 9 -->
<g id="node10" class="node">
<title>9</title>
<path fill="none" stroke="#d6d856" stroke-width="2" d="M218,-252C218,-252 171,-252 171,-252 165,-252 159,-246 159,-240 159,-240 159,-228 159,-228 159,-222 165,-216 171,-216 171,-216 218,-216 218,-216 224,-216 230,-222 230,-228 230,-228 230,-240 230,-240 230,-246 224,-252 218,-252"/>
<text text-anchor="middle" x="194.5" y="-231.5" font-family="sans" font-size="10.00" fill="#000000">get_header</text>
</g>
<!-- 9&#45;&gt;7 -->
<g id="edge9" class="edge">
<title>9&#45;&gt;7</title>
<path fill="none" stroke="#c0c0c0" stroke-width="2" d="M194.5,-215.8314C194.5,-208.131 194.5,-198.9743 194.5,-190.4166"/>
<polygon fill="#c0c0c0" stroke="#c0c0c0" stroke-width="2" points="198.0001,-190.4132 194.5,-180.4133 191.0001,-190.4133 198.0001,-190.4132"/>
</g>
<!-- 10 -->
<g id="node11" class="node">
<title>10</title>
<path fill="none" stroke="#d88556" stroke-width="2" d="M195.5,-396C195.5,-396 91.5,-396 91.5,-396 85.5,-396 79.5,-390 79.5,-384 79.5,-384 79.5,-372 79.5,-372 79.5,-366 85.5,-360 91.5,-360 91.5,-360 195.5,-360 195.5,-360 201.5,-360 207.5,-366 207.5,-372 207.5,-372 207.5,-384 207.5,-384 207.5,-390 201.5,-396 195.5,-396"/>
<text text-anchor="middle" x="143.5" y="-375.5" font-family="sans" font-size="10.00" fill="#000000">remove_multimappers</text>
</g>
<!-- 10&#45;&gt;8 -->
<g id="edge10" class="edge">
<title>10&#45;&gt;8</title>
<path fill="none" stroke="#c0c0c0" stroke-width="2" d="M136.6868,-359.8314C133.7356,-351.9617 130.2142,-342.5712 126.945,-333.8533"/>
<polygon fill="#c0c0c0" stroke="#c0c0c0" stroke-width="2" points="130.1934,-332.5476 123.405,-324.4133 123.6391,-335.0055 130.1934,-332.5476"/>
</g>
<!-- 10&#45;&gt;9 -->
<g id="edge11" class="edge">
<title>10&#45;&gt;9</title>
<path fill="none" stroke="#c0c0c0" stroke-width="2" d="M149.9592,-359.7623C158.7346,-334.9846 174.4997,-290.4714 184.7272,-261.5939"/>
<polygon fill="#c0c0c0" stroke="#c0c0c0" stroke-width="2" points="188.0539,-262.6844 188.0933,-252.0896 181.4555,-260.3474 188.0539,-262.6844"/>
</g>
<!-- 11 -->
<g id="node12" class="node">
<title>11</title>
<path fill="none" stroke="#56d8d8" stroke-width="2" d="M188,-468C188,-468 99,-468 99,-468 93,-468 87,-462 87,-456 87,-456 87,-444 87,-444 87,-438 93,-432 99,-432 99,-432 188,-432 188,-432 194,-432 200,-438 200,-444 200,-444 200,-456 200,-456 200,-462 194,-468 188,-468"/>
<text text-anchor="middle" x="143.5" y="-453" font-family="sans" font-size="10.00" fill="#000000">bowtie_map</text>
<text text-anchor="middle" x="143.5" y="-442" font-family="sans" font-size="10.00" fill="#000000">sample: SAMPLE_ID</text>
</g>
<!-- 11&#45;&gt;10 -->
<g id="edge12" class="edge">
<title>11&#45;&gt;10</title>
<path fill="none" stroke="#c0c0c0" stroke-width="2" d="M143.5,-431.8314C143.5,-424.131 143.5,-414.9743 143.5,-406.4166"/>
<polygon fill="#c0c0c0" stroke="#c0c0c0" stroke-width="2" points="147.0001,-406.4132 143.5,-396.4133 140.0001,-406.4133 147.0001,-406.4132"/>
</g>
</g>
</svg>
