<?xml version="1.0" encoding="UTF-8" standalone="no"?>
<!DOCTYPE svg PUBLIC "-//W3C//DTD SVG 1.1//EN"
 "http://www.w3.org/Graphics/SVG/1.1/DTD/svg11.dtd">
<!-- Generated by graphviz version 2.40.1 (20161225.0304)
 -->
<!-- Title: snakemake_dag Pages: 1 -->
<svg width="965pt" height="481pt"
 viewBox="0.00 0.00 964.73 481.00" xmlns="http://www.w3.org/2000/svg" xmlns:xlink="http://www.w3.org/1999/xlink">
<g id="graph0" class="graph" transform="scale(1 1) rotate(0) translate(4 477)">
<title>snakemake_dag</title>
<polygon fill="#ffffff" stroke="transparent" points="-4,4 -4,-477 960.7269,-477 960.7269,4 -4,4"/>
<!-- 0 -->
<g id="node1" class="node">
<title>0</title>
<path fill="none" stroke="#59d856" stroke-width="2" stroke-dasharray="5,2" d="M538.5,-36C538.5,-36 508.5,-36 508.5,-36 502.5,-36 496.5,-30 496.5,-24 496.5,-24 496.5,-12 496.5,-12 496.5,-6 502.5,0 508.5,0 508.5,0 538.5,0 538.5,0 544.5,0 550.5,-6 550.5,-12 550.5,-12 550.5,-24 550.5,-24 550.5,-30 544.5,-36 538.5,-36"/>
<text text-anchor="middle" x="523.5" y="-15.5" font-family="sans" font-size="10.00" fill="#000000">all</text>
</g>
<!-- 1 -->
<g id="node2" class="node">
<title>1</title>
<path fill="none" stroke="#88d856" stroke-width="2" stroke-dasharray="5,2" d="M533,-108C533,-108 414,-108 414,-108 408,-108 402,-102 402,-96 402,-96 402,-84 402,-84 402,-78 408,-72 414,-72 414,-72 533,-72 533,-72 539,-72 545,-78 545,-84 545,-84 545,-96 545,-96 545,-102 539,-108 533,-108"/>
<text text-anchor="middle" x="473.5" y="-87.5" font-family="sans" font-size="10.00" fill="#000000">plot_distance_distribution</text>
</g>
<!-- 1&#45;&gt;0 -->
<g id="edge1" class="edge">
<title>1&#45;&gt;0</title>
<path fill="none" stroke="#c0c0c0" stroke-width="2" d="M486.1171,-71.8314C491.8172,-63.6232 498.6663,-53.7606 504.9359,-44.7323"/>
<polygon fill="#c0c0c0" stroke="#c0c0c0" stroke-width="2" points="507.8838,-46.6234 510.713,-36.4133 502.1342,-42.6306 507.8838,-46.6234"/>
</g>
<!-- 2 -->
<g id="node3" class="node">
<title>2</title>
<path fill="none" stroke="#56c1d8" stroke-width="2" stroke-dasharray="5,2" d="M605.5,-180C605.5,-180 549.5,-180 549.5,-180 543.5,-180 537.5,-174 537.5,-168 537.5,-168 537.5,-156 537.5,-156 537.5,-150 543.5,-144 549.5,-144 549.5,-144 605.5,-144 605.5,-144 611.5,-144 617.5,-150 617.5,-156 617.5,-156 617.5,-168 617.5,-168 617.5,-174 611.5,-180 605.5,-180"/>
<text text-anchor="middle" x="577.5" y="-159.5" font-family="sans" font-size="10.00" fill="#000000">merge_sams</text>
</g>
<!-- 2&#45;&gt;0 -->
<g id="edge2" class="edge">
<title>2&#45;&gt;0</title>
<path fill="none" stroke="#c0c0c0" stroke-width="2" d="M574.0659,-143.9901C570.2289,-125.514 563.2501,-96.1407 553.5,-72 549.8427,-62.9446 544.9913,-53.4987 540.2581,-45.086"/>
<polygon fill="#c0c0c0" stroke="#c0c0c0" stroke-width="2" points="543.2797,-43.3195 535.2306,-36.4301 537.2266,-46.8352 543.2797,-43.3195"/>
</g>
<!-- 3 -->
<g id="node4" class="node">
<title>3</title>
<path fill="none" stroke="#d8bc56" stroke-width="2" stroke-dasharray="5,2" d="M507.5,-180C507.5,-180 431.5,-180 431.5,-180 425.5,-180 419.5,-174 419.5,-168 419.5,-168 419.5,-156 419.5,-156 419.5,-150 425.5,-144 431.5,-144 431.5,-144 507.5,-144 507.5,-144 513.5,-144 519.5,-150 519.5,-156 519.5,-156 519.5,-168 519.5,-168 519.5,-174 513.5,-180 507.5,-180"/>
<text text-anchor="middle" x="469.5" y="-159.5" font-family="sans" font-size="10.00" fill="#000000">merge_distances</text>
</g>
<!-- 3&#45;&gt;1 -->
<g id="edge3" class="edge">
<title>3&#45;&gt;1</title>
<path fill="none" stroke="#c0c0c0" stroke-width="2" d="M470.5094,-143.8314C470.9372,-136.131 471.4459,-126.9743 471.9213,-118.4166"/>
<polygon fill="#c0c0c0" stroke="#c0c0c0" stroke-width="2" points="475.4169,-118.592 472.477,-108.4133 468.4276,-118.2037 475.4169,-118.592"/>
</g>
<!-- 4 -->
<g id="node5" class="node">
<title>4</title>
<path fill="none" stroke="#56d88a" stroke-width="2" stroke-dasharray="5,2" d="M289,-257C289,-257 12,-257 12,-257 6,-257 0,-251 0,-245 0,-245 0,-228 0,-228 0,-222 6,-216 12,-216 12,-216 289,-216 289,-216 295,-216 301,-222 301,-228 301,-228 301,-245 301,-245 301,-251 295,-257 289,-257"/>
<text text-anchor="middle" x="150.5" y="-245" font-family="sans" font-size="10.00" fill="#000000">filter_near_sites</text>
<text text-anchor="middle" x="150.5" y="-234" font-family="sans" font-size="10.00" fill="#000000">n: 002</text>
<text text-anchor="middle" x="150.5" y="-223" font-family="sans" font-size="10.00" fill="#000000">sample: HBCRACKHiC&#45;K562&#45;DN&#45;TD&#45;R1_GCCAAT_L008_test</text>
</g>
<!-- 4&#45;&gt;2 -->
<g id="edge4" class="edge">
<title>4&#45;&gt;2</title>
<path fill="none" stroke="#c0c0c0" stroke-width="2" d="M297.5998,-215.9721C385.5951,-203.4607 486.7432,-188.5969 527.4969,-179.8056"/>
<polygon fill="#c0c0c0" stroke="#c0c0c0" stroke-width="2" points="528.3953,-183.1899 537.3289,-177.4941 526.7932,-176.3757 528.3953,-183.1899"/>
</g>
<!-- 4&#45;&gt;3 -->
<g id="edge8" class="edge">
<title>4&#45;&gt;3</title>
<path fill="none" stroke="#c0c0c0" stroke-width="2" d="M238.5126,-215.9453C292.9188,-203.2392 361.317,-187.2653 409.5194,-176.008"/>
<polygon fill="#c0c0c0" stroke="#c0c0c0" stroke-width="2" points="410.5444,-179.3629 419.4864,-173.6803 408.9524,-172.5463 410.5444,-179.3629"/>
</g>
<!-- 5 -->
<g id="node6" class="node">
<title>5</title>
<path fill="none" stroke="#56d88a" stroke-width="2" stroke-dasharray="5,2" d="M608,-257C608,-257 331,-257 331,-257 325,-257 319,-251 319,-245 319,-245 319,-228 319,-228 319,-222 325,-216 331,-216 331,-216 608,-216 608,-216 614,-216 620,-222 620,-228 620,-228 620,-245 620,-245 620,-251 614,-257 608,-257"/>
<text text-anchor="middle" x="469.5" y="-245" font-family="sans" font-size="10.00" fill="#000000">filter_near_sites</text>
<text text-anchor="middle" x="469.5" y="-234" font-family="sans" font-size="10.00" fill="#000000">n: 000</text>
<text text-anchor="middle" x="469.5" y="-223" font-family="sans" font-size="10.00" fill="#000000">sample: HBCRACKHiC&#45;K562&#45;DN&#45;TD&#45;R1_GCCAAT_L008_test</text>
</g>
<!-- 5&#45;&gt;2 -->
<g id="edge5" class="edge">
<title>5&#45;&gt;2</title>
<path fill="none" stroke="#c0c0c0" stroke-width="2" d="M499.2974,-215.9453C512.7407,-206.6719 528.7072,-195.658 542.6974,-186.0074"/>
<polygon fill="#c0c0c0" stroke="#c0c0c0" stroke-width="2" points="544.8685,-188.7617 551.1126,-180.2024 540.8937,-182.9996 544.8685,-188.7617"/>
</g>
<!-- 5&#45;&gt;3 -->
<g id="edge9" class="edge">
<title>5&#45;&gt;3</title>
<path fill="none" stroke="#c0c0c0" stroke-width="2" d="M469.5,-215.7476C469.5,-207.8767 469.5,-198.7743 469.5,-190.3232"/>
<polygon fill="#c0c0c0" stroke="#c0c0c0" stroke-width="2" points="473.0001,-190.1086 469.5,-180.1087 466.0001,-190.1087 473.0001,-190.1086"/>
</g>
<!-- 6 -->
<g id="node7" class="node">
<title>6</title>
<path fill="none" stroke="#56d88a" stroke-width="2" stroke-dasharray="5,2" d="M927,-257C927,-257 650,-257 650,-257 644,-257 638,-251 638,-245 638,-245 638,-228 638,-228 638,-222 644,-216 650,-216 650,-216 927,-216 927,-216 933,-216 939,-222 939,-228 939,-228 939,-245 939,-245 939,-251 933,-257 927,-257"/>
<text text-anchor="middle" x="788.5" y="-245" font-family="sans" font-size="10.00" fill="#000000">filter_near_sites</text>
<text text-anchor="middle" x="788.5" y="-234" font-family="sans" font-size="10.00" fill="#000000">n: 001</text>
<text text-anchor="middle" x="788.5" y="-223" font-family="sans" font-size="10.00" fill="#000000">sample: HBCRACKHiC&#45;K562&#45;DN&#45;TD&#45;R1_GCCAAT_L008_test</text>
</g>
<!-- 6&#45;&gt;2 -->
<g id="edge6" class="edge">
<title>6&#45;&gt;2</title>
<path fill="none" stroke="#c0c0c0" stroke-width="2" d="M730.2848,-215.9453C697.9243,-204.5195 658.0801,-190.4513 627.1953,-179.5465"/>
<polygon fill="#c0c0c0" stroke="#c0c0c0" stroke-width="2" points="628.0983,-176.1536 617.5035,-176.1244 625.7677,-182.7542 628.0983,-176.1536"/>
</g>
<!-- 6&#45;&gt;3 -->
<g id="edge10" class="edge">
<title>6&#45;&gt;3</title>
<path fill="none" stroke="#c0c0c0" stroke-width="2" d="M684.6046,-215.9622C639.4508,-206.5432 585.8032,-194.6938 529.4404,-180.1518"/>
<polygon fill="#c0c0c0" stroke="#c0c0c0" stroke-width="2" points="530.1913,-176.7307 519.6323,-177.6009 528.4293,-183.5053 530.1913,-176.7307"/>
</g>
<!-- 7 -->
<g id="node8" class="node">
<title>7</title>
<path fill="none" stroke="#568ad8" stroke-width="2" stroke-dasharray="5,2" d="M862,-329C862,-329 815,-329 815,-329 809,-329 803,-323 803,-317 803,-317 803,-305 803,-305 803,-299 809,-293 815,-293 815,-293 862,-293 862,-293 868,-293 874,-299 874,-305 874,-305 874,-317 874,-317 874,-323 868,-329 862,-329"/>
<text text-anchor="middle" x="838.5" y="-308.5" font-family="sans" font-size="10.00" fill="#000000">get_header</text>
</g>
<!-- 7&#45;&gt;2 -->
<g id="edge7" class="edge">
<title>7&#45;&gt;2</title>
<path fill="none" stroke="#c0c0c0" stroke-width="2" d="M874.2052,-303.8917C899.7471,-296.7403 932.3555,-282.9104 948.5,-257 958.1365,-241.5343 960.421,-229.7818 948.5,-216 927.7782,-192.0437 724.0655,-173.2976 627.6279,-165.6892"/>
<polygon fill="#c0c0c0" stroke="#c0c0c0" stroke-width="2" points="627.7691,-162.1897 617.5274,-164.9022 627.2253,-169.1686 627.7691,-162.1897"/>
</g>
<!-- 8 -->
<g id="node9" class="node">
<title>8</title>
<path fill="none" stroke="#bed856" stroke-width="2" stroke-dasharray="5,2" d="M643.5,-329C643.5,-329 613.5,-329 613.5,-329 607.5,-329 601.5,-323 601.5,-317 601.5,-317 601.5,-305 601.5,-305 601.5,-299 607.5,-293 613.5,-293 613.5,-293 643.5,-293 643.5,-293 649.5,-293 655.5,-299 655.5,-305 655.5,-305 655.5,-317 655.5,-317 655.5,-323 649.5,-329 643.5,-329"/>
<text text-anchor="middle" x="628.5" y="-308.5" font-family="sans" font-size="10.00" fill="#000000">split</text>
</g>
<!-- 8&#45;&gt;4 -->
<g id="edge11" class="edge">
<title>8&#45;&gt;4</title>
<path fill="none" stroke="#c0c0c0" stroke-width="2" d="M601.4311,-306.7811C542.9705,-297.6696 401.3838,-275.6022 292.3289,-258.6051"/>
<polygon fill="#c0c0c0" stroke="#c0c0c0" stroke-width="2" points="292.6337,-255.1105 282.2139,-257.0286 291.5556,-262.027 292.6337,-255.1105"/>
</g>
<!-- 8&#45;&gt;5 -->
<g id="edge12" class="edge">
<title>8&#45;&gt;5</title>
<path fill="none" stroke="#c0c0c0" stroke-width="2" d="M601.1669,-298.193C579.6426,-288.1077 548.9841,-273.7425 522.6661,-261.4112"/>
<polygon fill="#c0c0c0" stroke="#c0c0c0" stroke-width="2" points="524.1006,-258.2182 513.5603,-257.1446 521.1305,-264.5569 524.1006,-258.2182"/>
</g>
<!-- 8&#45;&gt;6 -->
<g id="edge13" class="edge">
<title>8&#45;&gt;6</title>
<path fill="none" stroke="#c0c0c0" stroke-width="2" d="M655.6418,-298.3621C677.335,-288.2612 708.414,-273.7901 735.0591,-261.3834"/>
<polygon fill="#c0c0c0" stroke="#c0c0c0" stroke-width="2" points="736.6882,-264.4858 744.2762,-257.0917 733.7334,-258.1399 736.6882,-264.4858"/>
</g>
<!-- 9 -->
<g id="node10" class="node">
<title>9</title>
<path fill="none" stroke="#d85656" stroke-width="2" stroke-dasharray="5,2" d="M720.5,-401C720.5,-401 616.5,-401 616.5,-401 610.5,-401 604.5,-395 604.5,-389 604.5,-389 604.5,-377 604.5,-377 604.5,-371 610.5,-365 616.5,-365 616.5,-365 720.5,-365 720.5,-365 726.5,-365 732.5,-371 732.5,-377 732.5,-377 732.5,-389 732.5,-389 732.5,-395 726.5,-401 720.5,-401"/>
<text text-anchor="middle" x="668.5" y="-380.5" font-family="sans" font-size="10.00" fill="#000000">remove_multimappers</text>
</g>
<!-- 9&#45;&gt;7 -->
<g id="edge14" class="edge">
<title>9&#45;&gt;7</title>
<path fill="none" stroke="#c0c0c0" stroke-width="2" d="M711.3982,-364.8314C736.43,-354.2296 767.9791,-340.8677 793.3824,-330.1086"/>
<polygon fill="#c0c0c0" stroke="#c0c0c0" stroke-width="2" points="794.948,-333.2466 802.7912,-326.1237 792.218,-326.8009 794.948,-333.2466"/>
</g>
<!-- 9&#45;&gt;8 -->
<g id="edge15" class="edge">
<title>9&#45;&gt;8</title>
<path fill="none" stroke="#c0c0c0" stroke-width="2" d="M658.4063,-364.8314C653.9403,-356.7925 648.5925,-347.1666 643.6621,-338.2918"/>
<polygon fill="#c0c0c0" stroke="#c0c0c0" stroke-width="2" points="646.6456,-336.4551 638.7296,-329.4133 640.5265,-339.8546 646.6456,-336.4551"/>
</g>
<!-- 10 -->
<g id="node11" class="node">
<title>10</title>
<path fill="none" stroke="#56d8c1" stroke-width="2" stroke-dasharray="5,2" d="M807,-473C807,-473 530,-473 530,-473 524,-473 518,-467 518,-461 518,-461 518,-449 518,-449 518,-443 524,-437 530,-437 530,-437 807,-437 807,-437 813,-437 819,-443 819,-449 819,-449 819,-461 819,-461 819,-467 813,-473 807,-473"/>
<text text-anchor="middle" x="668.5" y="-458" font-family="sans" font-size="10.00" fill="#000000">bowtie_map</text>
<text text-anchor="middle" x="668.5" y="-447" font-family="sans" font-size="10.00" fill="#000000">sample: HBCRACKHiC&#45;K562&#45;DN&#45;TD&#45;R1_GCCAAT_L008_test</text>
</g>
<!-- 10&#45;&gt;9 -->
<g id="edge16" class="edge">
<title>10&#45;&gt;9</title>
<path fill="none" stroke="#c0c0c0" stroke-width="2" d="M668.5,-436.8314C668.5,-429.131 668.5,-419.9743 668.5,-411.4166"/>
<polygon fill="#c0c0c0" stroke="#c0c0c0" stroke-width="2" points="672.0001,-411.4132 668.5,-401.4133 665.0001,-411.4133 672.0001,-411.4132"/>
</g>
</g>
</svg>
