<?xml version="1.0" encoding="UTF-8" standalone="no"?>
<!DOCTYPE svg PUBLIC "-//W3C//DTD SVG 1.1//EN"
 "http://www.w3.org/Graphics/SVG/1.1/DTD/svg11.dtd">
<!-- Generated by graphviz version 2.40.1 (20161225.0304)
 -->
<!-- Title: snakemake_dag Pages: 1 -->
<svg width="574pt" height="553pt"
 viewBox="0.00 0.00 574.00 553.00" xmlns="http://www.w3.org/2000/svg" xmlns:xlink="http://www.w3.org/1999/xlink">
<g id="graph0" class="graph" transform="scale(1 1) rotate(0) translate(4 549)">
<title>snakemake_dag</title>
<polygon fill="#ffffff" stroke="transparent" points="-4,4 -4,-549 570,-549 570,4 -4,4"/>
<!-- 0 -->
<g id="node1" class="node">
<title>0</title>
<path fill="none" stroke="#56c9d8" stroke-width="2" stroke-dasharray="5,2" d="M333.5,-36C333.5,-36 303.5,-36 303.5,-36 297.5,-36 291.5,-30 291.5,-24 291.5,-24 291.5,-12 291.5,-12 291.5,-6 297.5,0 303.5,0 303.5,0 333.5,0 333.5,0 339.5,0 345.5,-6 345.5,-12 345.5,-12 345.5,-24 345.5,-24 345.5,-30 339.5,-36 333.5,-36"/>
<text text-anchor="middle" x="318.5" y="-15.5" font-family="sans" font-size="10.00" fill="#000000">all</text>
</g>
<!-- 1 -->
<g id="node2" class="node">
<title>1</title>
<path fill="none" stroke="#56d87b" stroke-width="2" stroke-dasharray="5,2" d="M554,-108C554,-108 427,-108 427,-108 421,-108 415,-102 415,-96 415,-96 415,-84 415,-84 415,-78 421,-72 427,-72 427,-72 554,-72 554,-72 560,-72 566,-78 566,-84 566,-84 566,-96 566,-96 566,-102 560,-108 554,-108"/>
<text text-anchor="middle" x="490.5" y="-87.5" font-family="sans" font-size="10.00" fill="#000000">copy_number_correct_40kb</text>
</g>
<!-- 1&#45;&gt;0 -->
<g id="edge1" class="edge">
<title>1&#45;&gt;0</title>
<path fill="none" stroke="#c0c0c0" stroke-width="2" d="M447.0971,-71.8314C418.7343,-59.9585 382.1016,-44.6239 355.1939,-33.3603"/>
<polygon fill="#c0c0c0" stroke="#c0c0c0" stroke-width="2" points="356.3298,-30.0415 345.7539,-29.4086 353.6268,-36.4986 356.3298,-30.0415"/>
</g>
<!-- 2 -->
<g id="node3" class="node">
<title>2</title>
<path fill="none" stroke="#59d856" stroke-width="2" stroke-dasharray="5,2" d="M385,-108C385,-108 252,-108 252,-108 246,-108 240,-102 240,-96 240,-96 240,-84 240,-84 240,-78 246,-72 252,-72 252,-72 385,-72 385,-72 391,-72 397,-78 397,-84 397,-84 397,-96 397,-96 397,-102 391,-108 385,-108"/>
<text text-anchor="middle" x="318.5" y="-87.5" font-family="sans" font-size="10.00" fill="#000000">copy_number_correct_500kb</text>
</g>
<!-- 2&#45;&gt;0 -->
<g id="edge2" class="edge">
<title>2&#45;&gt;0</title>
<path fill="none" stroke="#c0c0c0" stroke-width="2" d="M318.5,-71.8314C318.5,-64.131 318.5,-54.9743 318.5,-46.4166"/>
<polygon fill="#c0c0c0" stroke="#c0c0c0" stroke-width="2" points="322.0001,-46.4132 318.5,-36.4133 315.0001,-46.4133 322.0001,-46.4132"/>
</g>
<!-- 3 -->
<g id="node4" class="node">
<title>3</title>
<path fill="none" stroke="#d87d56" stroke-width="2" stroke-dasharray="5,2" d="M210,-108C210,-108 91,-108 91,-108 85,-108 79,-102 79,-96 79,-96 79,-84 79,-84 79,-78 85,-72 91,-72 91,-72 210,-72 210,-72 216,-72 222,-78 222,-84 222,-84 222,-96 222,-96 222,-102 216,-108 210,-108"/>
<text text-anchor="middle" x="150.5" y="-87.5" font-family="sans" font-size="10.00" fill="#000000">plot_distance_distribution</text>
</g>
<!-- 3&#45;&gt;0 -->
<g id="edge3" class="edge">
<title>3&#45;&gt;0</title>
<path fill="none" stroke="#c0c0c0" stroke-width="2" d="M192.8935,-71.8314C220.4236,-60.0328 255.9305,-44.8155 282.1655,-33.5719"/>
<polygon fill="#c0c0c0" stroke="#c0c0c0" stroke-width="2" points="283.5669,-36.7793 291.3796,-29.623 280.8094,-30.3453 283.5669,-36.7793"/>
</g>
<!-- 4 -->
<g id="node5" class="node">
<title>4</title>
<path fill="none" stroke="#56d8c9" stroke-width="2" stroke-dasharray="5,2" d="M464,-180C464,-180 427,-180 427,-180 421,-180 415,-174 415,-168 415,-168 415,-156 415,-156 415,-150 421,-144 427,-144 427,-144 464,-144 464,-144 470,-144 476,-150 476,-156 476,-156 476,-168 476,-168 476,-174 470,-180 464,-180"/>
<text text-anchor="middle" x="445.5" y="-159.5" font-family="sans" font-size="10.00" fill="#000000">bin_40kb</text>
</g>
<!-- 4&#45;&gt;1 -->
<g id="edge4" class="edge">
<title>4&#45;&gt;1</title>
<path fill="none" stroke="#c0c0c0" stroke-width="2" d="M456.8554,-143.8314C461.9326,-135.7079 468.0227,-125.9637 473.6176,-117.0118"/>
<polygon fill="#c0c0c0" stroke="#c0c0c0" stroke-width="2" points="476.6597,-118.7483 478.9917,-108.4133 470.7237,-115.0383 476.6597,-118.7483"/>
</g>
<!-- 5 -->
<g id="node6" class="node">
<title>5</title>
<path fill="none" stroke="#9fd856" stroke-width="2" stroke-dasharray="5,2" d="M340,-180C340,-180 297,-180 297,-180 291,-180 285,-174 285,-168 285,-168 285,-156 285,-156 285,-150 291,-144 297,-144 297,-144 340,-144 340,-144 346,-144 352,-150 352,-156 352,-156 352,-168 352,-168 352,-174 346,-180 340,-180"/>
<text text-anchor="middle" x="318.5" y="-159.5" font-family="sans" font-size="10.00" fill="#000000">bin_500kb</text>
</g>
<!-- 5&#45;&gt;2 -->
<g id="edge5" class="edge">
<title>5&#45;&gt;2</title>
<path fill="none" stroke="#c0c0c0" stroke-width="2" d="M318.5,-143.8314C318.5,-136.131 318.5,-126.9743 318.5,-118.4166"/>
<polygon fill="#c0c0c0" stroke="#c0c0c0" stroke-width="2" points="322.0001,-118.4132 318.5,-108.4133 315.0001,-118.4133 322.0001,-118.4132"/>
</g>
<!-- 6 -->
<g id="node7" class="node">
<title>6</title>
<path fill="none" stroke="#c6d856" stroke-width="2" stroke-dasharray="5,2" d="M216.5,-252C216.5,-252 140.5,-252 140.5,-252 134.5,-252 128.5,-246 128.5,-240 128.5,-240 128.5,-228 128.5,-228 128.5,-222 134.5,-216 140.5,-216 140.5,-216 216.5,-216 216.5,-216 222.5,-216 228.5,-222 228.5,-228 228.5,-228 228.5,-240 228.5,-240 228.5,-246 222.5,-252 216.5,-252"/>
<text text-anchor="middle" x="178.5" y="-231.5" font-family="sans" font-size="10.00" fill="#000000">merge_distances</text>
</g>
<!-- 6&#45;&gt;3 -->
<g id="edge6" class="edge">
<title>6&#45;&gt;3</title>
<path fill="none" stroke="#c0c0c0" stroke-width="2" d="M174.9538,-215.7623C170.1569,-191.0928 161.5561,-146.8598 155.9392,-117.9731"/>
<polygon fill="#c0c0c0" stroke="#c0c0c0" stroke-width="2" points="159.3619,-117.2377 154.0174,-108.0896 152.4905,-118.5738 159.3619,-117.2377"/>
</g>
<!-- 7 -->
<g id="node8" class="node">
<title>7</title>
<path fill="none" stroke="#d85656" stroke-width="2" stroke-dasharray="5,2" d="M346.5,-252C346.5,-252 290.5,-252 290.5,-252 284.5,-252 278.5,-246 278.5,-240 278.5,-240 278.5,-228 278.5,-228 278.5,-222 284.5,-216 290.5,-216 290.5,-216 346.5,-216 346.5,-216 352.5,-216 358.5,-222 358.5,-228 358.5,-228 358.5,-240 358.5,-240 358.5,-246 352.5,-252 346.5,-252"/>
<text text-anchor="middle" x="318.5" y="-231.5" font-family="sans" font-size="10.00" fill="#000000">merge_sams</text>
</g>
<!-- 7&#45;&gt;4 -->
<g id="edge7" class="edge">
<title>7&#45;&gt;4</title>
<path fill="none" stroke="#c0c0c0" stroke-width="2" d="M350.5475,-215.8314C367.3174,-206.324 388.0028,-194.5968 405.7812,-184.5177"/>
<polygon fill="#c0c0c0" stroke="#c0c0c0" stroke-width="2" points="407.804,-187.3944 414.7771,-179.4177 404.3517,-181.3049 407.804,-187.3944"/>
</g>
<!-- 7&#45;&gt;5 -->
<g id="edge8" class="edge">
<title>7&#45;&gt;5</title>
<path fill="none" stroke="#c0c0c0" stroke-width="2" d="M318.5,-215.8314C318.5,-208.131 318.5,-198.9743 318.5,-190.4166"/>
<polygon fill="#c0c0c0" stroke="#c0c0c0" stroke-width="2" points="322.0001,-190.4132 318.5,-180.4133 315.0001,-190.4133 322.0001,-190.4132"/>
</g>
<!-- 8 -->
<g id="node9" class="node">
<title>8</title>
<path fill="none" stroke="#56d8a2" stroke-width="2" stroke-dasharray="5,2" d="M101,-329C101,-329 12,-329 12,-329 6,-329 0,-323 0,-317 0,-317 0,-300 0,-300 0,-294 6,-288 12,-288 12,-288 101,-288 101,-288 107,-288 113,-294 113,-300 113,-300 113,-317 113,-317 113,-323 107,-329 101,-329"/>
<text text-anchor="middle" x="56.5" y="-317" font-family="sans" font-size="10.00" fill="#000000">filter_near_sites</text>
<text text-anchor="middle" x="56.5" y="-306" font-family="sans" font-size="10.00" fill="#000000">n: 001</text>
<text text-anchor="middle" x="56.5" y="-295" font-family="sans" font-size="10.00" fill="#000000">sample: SAMPLE_ID</text>
</g>
<!-- 8&#45;&gt;6 -->
<g id="edge9" class="edge">
<title>8&#45;&gt;6</title>
<path fill="none" stroke="#c0c0c0" stroke-width="2" d="M90.16,-287.9453C105.6325,-278.497 124.0639,-267.2417 140.0781,-257.4626"/>
<polygon fill="#c0c0c0" stroke="#c0c0c0" stroke-width="2" points="141.9816,-260.4012 148.692,-252.2024 138.3334,-254.427 141.9816,-260.4012"/>
</g>
<!-- 8&#45;&gt;7 -->
<g id="edge12" class="edge">
<title>8&#45;&gt;7</title>
<path fill="none" stroke="#c0c0c0" stroke-width="2" d="M113.1815,-290.4842C115.9914,-289.6349 118.7759,-288.8026 121.5,-288 171.3618,-273.3091 228.7088,-257.7381 268.6227,-247.1111"/>
<polygon fill="#c0c0c0" stroke="#c0c0c0" stroke-width="2" points="269.6133,-250.4695 278.3796,-244.5194 267.8162,-243.7041 269.6133,-250.4695"/>
</g>
<!-- 9 -->
<g id="node10" class="node">
<title>9</title>
<path fill="none" stroke="#56d8a2" stroke-width="2" stroke-dasharray="5,2" d="M232,-329C232,-329 143,-329 143,-329 137,-329 131,-323 131,-317 131,-317 131,-300 131,-300 131,-294 137,-288 143,-288 143,-288 232,-288 232,-288 238,-288 244,-294 244,-300 244,-300 244,-317 244,-317 244,-323 238,-329 232,-329"/>
<text text-anchor="middle" x="187.5" y="-317" font-family="sans" font-size="10.00" fill="#000000">filter_near_sites</text>
<text text-anchor="middle" x="187.5" y="-306" font-family="sans" font-size="10.00" fill="#000000">n: 002</text>
<text text-anchor="middle" x="187.5" y="-295" font-family="sans" font-size="10.00" fill="#000000">sample: SAMPLE_ID</text>
</g>
<!-- 9&#45;&gt;6 -->
<g id="edge10" class="edge">
<title>9&#45;&gt;6</title>
<path fill="none" stroke="#c0c0c0" stroke-width="2" d="M184.993,-287.7476C184.0316,-279.7892 182.9181,-270.5718 181.8876,-262.0418"/>
<polygon fill="#c0c0c0" stroke="#c0c0c0" stroke-width="2" points="185.3618,-261.6167 180.6876,-252.1087 178.4123,-262.4563 185.3618,-261.6167"/>
</g>
<!-- 9&#45;&gt;7 -->
<g id="edge13" class="edge">
<title>9&#45;&gt;7</title>
<path fill="none" stroke="#c0c0c0" stroke-width="2" d="M223.6431,-287.9453C240.4108,-278.4095 260.4149,-267.0332 277.7206,-257.1913"/>
<polygon fill="#c0c0c0" stroke="#c0c0c0" stroke-width="2" points="279.5307,-260.1884 286.4931,-252.2024 276.0702,-254.1036 279.5307,-260.1884"/>
</g>
<!-- 10 -->
<g id="node11" class="node">
<title>10</title>
<path fill="none" stroke="#56d8a2" stroke-width="2" stroke-dasharray="5,2" d="M363,-329C363,-329 274,-329 274,-329 268,-329 262,-323 262,-317 262,-317 262,-300 262,-300 262,-294 268,-288 274,-288 274,-288 363,-288 363,-288 369,-288 375,-294 375,-300 375,-300 375,-317 375,-317 375,-323 369,-329 363,-329"/>
<text text-anchor="middle" x="318.5" y="-317" font-family="sans" font-size="10.00" fill="#000000">filter_near_sites</text>
<text text-anchor="middle" x="318.5" y="-306" font-family="sans" font-size="10.00" fill="#000000">n: 000</text>
<text text-anchor="middle" x="318.5" y="-295" font-family="sans" font-size="10.00" fill="#000000">sample: SAMPLE_ID</text>
</g>
<!-- 10&#45;&gt;6 -->
<g id="edge11" class="edge">
<title>10&#45;&gt;6</title>
<path fill="none" stroke="#c0c0c0" stroke-width="2" d="M279.8738,-287.9453C261.7897,-278.322 240.1832,-266.8243 221.5727,-256.9208"/>
<polygon fill="#c0c0c0" stroke="#c0c0c0" stroke-width="2" points="223.178,-253.8104 212.7059,-252.2024 219.8896,-259.9899 223.178,-253.8104"/>
</g>
<!-- 10&#45;&gt;7 -->
<g id="edge15" class="edge">
<title>10&#45;&gt;7</title>
<path fill="none" stroke="#c0c0c0" stroke-width="2" d="M318.5,-287.7476C318.5,-279.8767 318.5,-270.7743 318.5,-262.3232"/>
<polygon fill="#c0c0c0" stroke="#c0c0c0" stroke-width="2" points="322.0001,-262.1086 318.5,-252.1087 315.0001,-262.1087 322.0001,-262.1086"/>
</g>
<!-- 11 -->
<g id="node12" class="node">
<title>11</title>
<path fill="none" stroke="#78d856" stroke-width="2" stroke-dasharray="5,2" d="M392,-401C392,-401 345,-401 345,-401 339,-401 333,-395 333,-389 333,-389 333,-377 333,-377 333,-371 339,-365 345,-365 345,-365 392,-365 392,-365 398,-365 404,-371 404,-377 404,-377 404,-389 404,-389 404,-395 398,-401 392,-401"/>
<text text-anchor="middle" x="368.5" y="-380.5" font-family="sans" font-size="10.00" fill="#000000">get_header</text>
</g>
<!-- 11&#45;&gt;7 -->
<g id="edge14" class="edge">
<title>11&#45;&gt;7</title>
<path fill="none" stroke="#c0c0c0" stroke-width="2" d="M377.2756,-364.9765C385.59,-345.1963 395.2047,-312.9407 383.5,-288 378.0409,-276.3676 368.7088,-266.3739 358.7927,-258.2592"/>
<polygon fill="#c0c0c0" stroke="#c0c0c0" stroke-width="2" points="360.855,-255.4304 350.7779,-252.1588 356.6154,-261.0005 360.855,-255.4304"/>
</g>
<!-- 12 -->
<g id="node13" class="node">
<title>12</title>
<path fill="none" stroke="#d8c356" stroke-width="2" stroke-dasharray="5,2" d="M267.5,-401C267.5,-401 237.5,-401 237.5,-401 231.5,-401 225.5,-395 225.5,-389 225.5,-389 225.5,-377 225.5,-377 225.5,-371 231.5,-365 237.5,-365 237.5,-365 267.5,-365 267.5,-365 273.5,-365 279.5,-371 279.5,-377 279.5,-377 279.5,-389 279.5,-389 279.5,-395 273.5,-401 267.5,-401"/>
<text text-anchor="middle" x="252.5" y="-380.5" font-family="sans" font-size="10.00" fill="#000000">split</text>
</g>
<!-- 12&#45;&gt;8 -->
<g id="edge16" class="edge">
<title>12&#45;&gt;8</title>
<path fill="none" stroke="#c0c0c0" stroke-width="2" d="M225.247,-372.6411C198.1143,-362.3279 155.4892,-346.126 119.869,-332.5867"/>
<polygon fill="#c0c0c0" stroke="#c0c0c0" stroke-width="2" points="121.0948,-329.3083 110.5037,-329.0269 118.6076,-335.8516 121.0948,-329.3083"/>
</g>
<!-- 12&#45;&gt;9 -->
<g id="edge17" class="edge">
<title>12&#45;&gt;9</title>
<path fill="none" stroke="#c0c0c0" stroke-width="2" d="M236.7653,-364.9656C229.427,-356.5548 220.5183,-346.3441 212.3053,-336.9306"/>
<polygon fill="#c0c0c0" stroke="#c0c0c0" stroke-width="2" points="214.8313,-334.502 205.6196,-329.2679 209.5566,-339.1041 214.8313,-334.502"/>
</g>
<!-- 12&#45;&gt;10 -->
<g id="edge18" class="edge">
<title>12&#45;&gt;10</title>
<path fill="none" stroke="#c0c0c0" stroke-width="2" d="M268.4768,-364.9656C275.928,-356.5548 284.9737,-346.3441 293.3131,-336.9306"/>
<polygon fill="#c0c0c0" stroke="#c0c0c0" stroke-width="2" points="296.0902,-339.074 300.1016,-329.2679 290.8506,-334.4322 296.0902,-339.074"/>
</g>
<!-- 13 -->
<g id="node14" class="node">
<title>13</title>
<path fill="none" stroke="#d8a456" stroke-width="2" stroke-dasharray="5,2" d="M344.5,-473C344.5,-473 240.5,-473 240.5,-473 234.5,-473 228.5,-467 228.5,-461 228.5,-461 228.5,-449 228.5,-449 228.5,-443 234.5,-437 240.5,-437 240.5,-437 344.5,-437 344.5,-437 350.5,-437 356.5,-443 356.5,-449 356.5,-449 356.5,-461 356.5,-461 356.5,-467 350.5,-473 344.5,-473"/>
<text text-anchor="middle" x="292.5" y="-452.5" font-family="sans" font-size="10.00" fill="#000000">remove_multimappers</text>
</g>
<!-- 13&#45;&gt;11 -->
<g id="edge19" class="edge">
<title>13&#45;&gt;11</title>
<path fill="none" stroke="#c0c0c0" stroke-width="2" d="M311.678,-436.8314C320.8588,-428.1337 332.0006,-417.5783 341.9776,-408.1265"/>
<polygon fill="#c0c0c0" stroke="#c0c0c0" stroke-width="2" points="344.4757,-410.5811 349.3281,-401.1628 339.6615,-405.4995 344.4757,-410.5811"/>
</g>
<!-- 13&#45;&gt;12 -->
<g id="edge20" class="edge">
<title>13&#45;&gt;12</title>
<path fill="none" stroke="#c0c0c0" stroke-width="2" d="M282.4063,-436.8314C277.9403,-428.7925 272.5925,-419.1666 267.6621,-410.2918"/>
<polygon fill="#c0c0c0" stroke="#c0c0c0" stroke-width="2" points="270.6456,-408.4551 262.7296,-401.4133 264.5265,-411.8546 270.6456,-408.4551"/>
</g>
<!-- 14 -->
<g id="node15" class="node">
<title>14</title>
<path fill="none" stroke="#567bd8" stroke-width="2" stroke-dasharray="5,2" d="M337,-545C337,-545 248,-545 248,-545 242,-545 236,-539 236,-533 236,-533 236,-521 236,-521 236,-515 242,-509 248,-509 248,-509 337,-509 337,-509 343,-509 349,-515 349,-521 349,-521 349,-533 349,-533 349,-539 343,-545 337,-545"/>
<text text-anchor="middle" x="292.5" y="-530" font-family="sans" font-size="10.00" fill="#000000">bowtie_map</text>
<text text-anchor="middle" x="292.5" y="-519" font-family="sans" font-size="10.00" fill="#000000">sample: SAMPLE_ID</text>
</g>
<!-- 14&#45;&gt;13 -->
<g id="edge21" class="edge">
<title>14&#45;&gt;13</title>
<path fill="none" stroke="#c0c0c0" stroke-width="2" d="M292.5,-508.8314C292.5,-501.131 292.5,-491.9743 292.5,-483.4166"/>
<polygon fill="#c0c0c0" stroke="#c0c0c0" stroke-width="2" points="296.0001,-483.4132 292.5,-473.4133 289.0001,-483.4133 296.0001,-483.4132"/>
</g>
</g>
</svg>
