<?xml version="1.0" encoding="UTF-8" standalone="no"?>
<!DOCTYPE svg PUBLIC "-//W3C//DTD SVG 1.1//EN"
 "http://www.w3.org/Graphics/SVG/1.1/DTD/svg11.dtd">
<!-- Generated by graphviz version 2.38.0 (20140413.2041)
 -->
<!-- Title: snakemake_dag Pages: 1 -->
<svg width="4794pt" height="409pt"
 viewBox="0.00 0.00 4793.91 409.00" xmlns="http://www.w3.org/2000/svg" xmlns:xlink="http://www.w3.org/1999/xlink">
<g id="graph0" class="graph" transform="scale(1 1) rotate(0) translate(4 405)">
<title>snakemake_dag</title>
<polygon fill="white" stroke="none" points="-4,4 -4,-405 4789.91,-405 4789.91,4 -4,4"/>
<!-- 0 -->
<g id="node1" class="node"><title>0</title>
<path fill="none" stroke="#d89556" stroke-width="2" stroke-dasharray="5,2" d="M2257.41,-36C2257.41,-36 2227.41,-36 2227.41,-36 2221.41,-36 2215.41,-30 2215.41,-24 2215.41,-24 2215.41,-12 2215.41,-12 2215.41,-6 2221.41,-0 2227.41,-0 2227.41,-0 2257.41,-0 2257.41,-0 2263.41,-0 2269.41,-6 2269.41,-12 2269.41,-12 2269.41,-24 2269.41,-24 2269.41,-30 2263.41,-36 2257.41,-36"/>
<text text-anchor="middle" x="2242.41" y="-15.5" font-family="sans" font-size="10.00">all</text>
</g>
<!-- 1 -->
<g id="node2" class="node"><title>1</title>
<path fill="none" stroke="#56d89a" stroke-width="2" stroke-dasharray="5,2" d="M2257.41,-108C2257.41,-108 2227.41,-108 2227.41,-108 2221.41,-108 2215.41,-102 2215.41,-96 2215.41,-96 2215.41,-84 2215.41,-84 2215.41,-78 2221.41,-72 2227.41,-72 2227.41,-72 2257.41,-72 2257.41,-72 2263.41,-72 2269.41,-78 2269.41,-84 2269.41,-84 2269.41,-96 2269.41,-96 2269.41,-102 2263.41,-108 2257.41,-108"/>
<text text-anchor="middle" x="2242.41" y="-87.5" font-family="sans" font-size="10.00">merge</text>
</g>
<!-- 1&#45;&gt;0 -->
<g id="edge1" class="edge"><title>1&#45;&gt;0</title>
<path fill="none" stroke="grey" stroke-width="2" d="M2242.41,-71.6966C2242.41,-63.9827 2242.41,-54.7125 2242.41,-46.1124"/>
<polygon fill="grey" stroke="grey" stroke-width="2" points="2245.91,-46.1043 2242.41,-36.1043 2238.91,-46.1044 2245.91,-46.1043"/>
</g>
<!-- 2 -->
<g id="node3" class="node"><title>2</title>
<path fill="none" stroke="#59d856" stroke-width="2" stroke-dasharray="5,2" d="M307.91,-185C307.91,-185 30.9102,-185 30.9102,-185 24.9102,-185 18.9102,-179 18.9102,-173 18.9102,-173 18.9102,-156 18.9102,-156 18.9102,-150 24.9102,-144 30.9102,-144 30.9102,-144 307.91,-144 307.91,-144 313.91,-144 319.91,-150 319.91,-156 319.91,-156 319.91,-173 319.91,-173 319.91,-179 313.91,-185 307.91,-185"/>
<text text-anchor="middle" x="169.41" y="-173" font-family="sans" font-size="10.00">filter_near_sites</text>
<text text-anchor="middle" x="169.41" y="-162" font-family="sans" font-size="10.00">n: 005</text>
<text text-anchor="middle" x="169.41" y="-151" font-family="sans" font-size="10.00">sample: HBCRACKHiC&#45;K562&#45;DN&#45;TD&#45;R1_GCCAAT_L008_test</text>
</g>
<!-- 2&#45;&gt;1 -->
<g id="edge2" class="edge"><title>2&#45;&gt;1</title>
<path fill="none" stroke="grey" stroke-width="2" d="M320.019,-144.663C322.838,-144.429 325.637,-144.208 328.41,-144 1083.57,-87.3646 2010.39,-89.5566 2205.36,-90.7262"/>
<polygon fill="grey" stroke="grey" stroke-width="2" points="2205.35,-94.2261 2215.38,-90.7893 2205.4,-87.2262 2205.35,-94.2261"/>
</g>
<!-- 3 -->
<g id="node4" class="node"><title>3</title>
<path fill="none" stroke="#59d856" stroke-width="2" stroke-dasharray="5,2" d="M626.91,-185C626.91,-185 349.91,-185 349.91,-185 343.91,-185 337.91,-179 337.91,-173 337.91,-173 337.91,-156 337.91,-156 337.91,-150 343.91,-144 349.91,-144 349.91,-144 626.91,-144 626.91,-144 632.91,-144 638.91,-150 638.91,-156 638.91,-156 638.91,-173 638.91,-173 638.91,-179 632.91,-185 626.91,-185"/>
<text text-anchor="middle" x="488.41" y="-173" font-family="sans" font-size="10.00">filter_near_sites</text>
<text text-anchor="middle" x="488.41" y="-162" font-family="sans" font-size="10.00">n: 007</text>
<text text-anchor="middle" x="488.41" y="-151" font-family="sans" font-size="10.00">sample: HBCRACKHiC&#45;K562&#45;DN&#45;TD&#45;R1_GCCAAT_L008_test</text>
</g>
<!-- 3&#45;&gt;1 -->
<g id="edge3" class="edge"><title>3&#45;&gt;1</title>
<path fill="none" stroke="grey" stroke-width="2" d="M639.02,-144.684C641.839,-144.444 644.638,-144.216 647.41,-144 1268.69,-95.6763 2029.46,-91.3542 2205.05,-91.0171"/>
<polygon fill="grey" stroke="grey" stroke-width="2" points="2205.31,-94.5168 2215.31,-91.0008 2205.3,-87.5168 2205.31,-94.5168"/>
</g>
<!-- 4 -->
<g id="node5" class="node"><title>4</title>
<path fill="none" stroke="#59d856" stroke-width="2" stroke-dasharray="5,2" d="M945.91,-185C945.91,-185 668.91,-185 668.91,-185 662.91,-185 656.91,-179 656.91,-173 656.91,-173 656.91,-156 656.91,-156 656.91,-150 662.91,-144 668.91,-144 668.91,-144 945.91,-144 945.91,-144 951.91,-144 957.91,-150 957.91,-156 957.91,-156 957.91,-173 957.91,-173 957.91,-179 951.91,-185 945.91,-185"/>
<text text-anchor="middle" x="807.41" y="-173" font-family="sans" font-size="10.00">filter_near_sites</text>
<text text-anchor="middle" x="807.41" y="-162" font-family="sans" font-size="10.00">n: 009</text>
<text text-anchor="middle" x="807.41" y="-151" font-family="sans" font-size="10.00">sample: HBCRACKHiC&#45;K562&#45;DN&#45;TD&#45;R1_GCCAAT_L008_test</text>
</g>
<!-- 4&#45;&gt;1 -->
<g id="edge4" class="edge"><title>4&#45;&gt;1</title>
<path fill="none" stroke="grey" stroke-width="2" d="M958.023,-144.716C960.841,-144.466 963.638,-144.227 966.41,-144 1454.65,-103.986 2050.61,-93.5625 2204.65,-91.4583"/>
<polygon fill="grey" stroke="grey" stroke-width="2" points="2205.02,-94.9538 2214.97,-91.3209 2204.93,-87.9544 2205.02,-94.9538"/>
</g>
<!-- 5 -->
<g id="node6" class="node"><title>5</title>
<path fill="none" stroke="#59d856" stroke-width="2" stroke-dasharray="5,2" d="M1264.91,-185C1264.91,-185 987.91,-185 987.91,-185 981.91,-185 975.91,-179 975.91,-173 975.91,-173 975.91,-156 975.91,-156 975.91,-150 981.91,-144 987.91,-144 987.91,-144 1264.91,-144 1264.91,-144 1270.91,-144 1276.91,-150 1276.91,-156 1276.91,-156 1276.91,-173 1276.91,-173 1276.91,-179 1270.91,-185 1264.91,-185"/>
<text text-anchor="middle" x="1126.41" y="-173" font-family="sans" font-size="10.00">filter_near_sites</text>
<text text-anchor="middle" x="1126.41" y="-162" font-family="sans" font-size="10.00">n: 008</text>
<text text-anchor="middle" x="1126.41" y="-151" font-family="sans" font-size="10.00">sample: HBCRACKHiC&#45;K562&#45;DN&#45;TD&#45;R1_GCCAAT_L008_test</text>
</g>
<!-- 5&#45;&gt;1 -->
<g id="edge5" class="edge"><title>5&#45;&gt;1</title>
<path fill="none" stroke="grey" stroke-width="2" d="M1277.03,-144.769C1279.84,-144.503 1282.64,-144.246 1285.41,-144 1642.9,-112.215 2077.33,-96.3672 2205.28,-92.1643"/>
<polygon fill="grey" stroke="grey" stroke-width="2" points="2205.46,-95.6606 2215.34,-91.8374 2205.23,-88.6643 2205.46,-95.6606"/>
</g>
<!-- 6 -->
<g id="node7" class="node"><title>6</title>
<path fill="none" stroke="#59d856" stroke-width="2" stroke-dasharray="5,2" d="M1583.91,-185C1583.91,-185 1306.91,-185 1306.91,-185 1300.91,-185 1294.91,-179 1294.91,-173 1294.91,-173 1294.91,-156 1294.91,-156 1294.91,-150 1300.91,-144 1306.91,-144 1306.91,-144 1583.91,-144 1583.91,-144 1589.91,-144 1595.91,-150 1595.91,-156 1595.91,-156 1595.91,-173 1595.91,-173 1595.91,-179 1589.91,-185 1583.91,-185"/>
<text text-anchor="middle" x="1445.41" y="-173" font-family="sans" font-size="10.00">filter_near_sites</text>
<text text-anchor="middle" x="1445.41" y="-162" font-family="sans" font-size="10.00">n: 011</text>
<text text-anchor="middle" x="1445.41" y="-151" font-family="sans" font-size="10.00">sample: HBCRACKHiC&#45;K562&#45;DN&#45;TD&#45;R1_GCCAAT_L008_test</text>
</g>
<!-- 6&#45;&gt;1 -->
<g id="edge6" class="edge"><title>6&#45;&gt;1</title>
<path fill="none" stroke="grey" stroke-width="2" d="M1596.04,-144.875C1598.85,-144.576 1601.64,-144.284 1604.41,-144 1832.43,-120.556 2107.12,-100.488 2205.31,-93.572"/>
<polygon fill="grey" stroke="grey" stroke-width="2" points="2205.59,-97.0604 2215.32,-92.8688 2205.1,-90.0776 2205.59,-97.0604"/>
</g>
<!-- 7 -->
<g id="node8" class="node"><title>7</title>
<path fill="none" stroke="#59d856" stroke-width="2" stroke-dasharray="5,2" d="M1902.91,-185C1902.91,-185 1625.91,-185 1625.91,-185 1619.91,-185 1613.91,-179 1613.91,-173 1613.91,-173 1613.91,-156 1613.91,-156 1613.91,-150 1619.91,-144 1625.91,-144 1625.91,-144 1902.91,-144 1902.91,-144 1908.91,-144 1914.91,-150 1914.91,-156 1914.91,-156 1914.91,-173 1914.91,-173 1914.91,-179 1908.91,-185 1902.91,-185"/>
<text text-anchor="middle" x="1764.41" y="-173" font-family="sans" font-size="10.00">filter_near_sites</text>
<text text-anchor="middle" x="1764.41" y="-162" font-family="sans" font-size="10.00">n: 001</text>
<text text-anchor="middle" x="1764.41" y="-151" font-family="sans" font-size="10.00">sample: HBCRACKHiC&#45;K562&#45;DN&#45;TD&#45;R1_GCCAAT_L008_test</text>
</g>
<!-- 7&#45;&gt;1 -->
<g id="edge7" class="edge"><title>7&#45;&gt;1</title>
<path fill="none" stroke="grey" stroke-width="2" d="M1893.13,-143.976C1997.86,-128.092 2138.77,-106.719 2205.03,-96.67"/>
<polygon fill="grey" stroke="grey" stroke-width="2" points="2205.64,-100.117 2215,-95.157 2204.59,-93.1962 2205.64,-100.117"/>
</g>
<!-- 8 -->
<g id="node9" class="node"><title>8</title>
<path fill="none" stroke="#59d856" stroke-width="2" stroke-dasharray="5,2" d="M2221.91,-185C2221.91,-185 1944.91,-185 1944.91,-185 1938.91,-185 1932.91,-179 1932.91,-173 1932.91,-173 1932.91,-156 1932.91,-156 1932.91,-150 1938.91,-144 1944.91,-144 1944.91,-144 2221.91,-144 2221.91,-144 2227.91,-144 2233.91,-150 2233.91,-156 2233.91,-156 2233.91,-173 2233.91,-173 2233.91,-179 2227.91,-185 2221.91,-185"/>
<text text-anchor="middle" x="2083.41" y="-173" font-family="sans" font-size="10.00">filter_near_sites</text>
<text text-anchor="middle" x="2083.41" y="-162" font-family="sans" font-size="10.00">n: 002</text>
<text text-anchor="middle" x="2083.41" y="-151" font-family="sans" font-size="10.00">sample: HBCRACKHiC&#45;K562&#45;DN&#45;TD&#45;R1_GCCAAT_L008_test</text>
</g>
<!-- 8&#45;&gt;1 -->
<g id="edge8" class="edge"><title>8&#45;&gt;1</title>
<path fill="none" stroke="grey" stroke-width="2" d="M2126.44,-143.88C2151.33,-132.528 2182.32,-118.398 2206,-107.601"/>
<polygon fill="grey" stroke="grey" stroke-width="2" points="2207.69,-110.677 2215.34,-103.344 2204.79,-104.308 2207.69,-110.677"/>
</g>
<!-- 9 -->
<g id="node10" class="node"><title>9</title>
<path fill="none" stroke="#59d856" stroke-width="2" stroke-dasharray="5,2" d="M2540.91,-185C2540.91,-185 2263.91,-185 2263.91,-185 2257.91,-185 2251.91,-179 2251.91,-173 2251.91,-173 2251.91,-156 2251.91,-156 2251.91,-150 2257.91,-144 2263.91,-144 2263.91,-144 2540.91,-144 2540.91,-144 2546.91,-144 2552.91,-150 2552.91,-156 2552.91,-156 2552.91,-173 2552.91,-173 2552.91,-179 2546.91,-185 2540.91,-185"/>
<text text-anchor="middle" x="2402.41" y="-173" font-family="sans" font-size="10.00">filter_near_sites</text>
<text text-anchor="middle" x="2402.41" y="-162" font-family="sans" font-size="10.00">n: 004</text>
<text text-anchor="middle" x="2402.41" y="-151" font-family="sans" font-size="10.00">sample: HBCRACKHiC&#45;K562&#45;DN&#45;TD&#45;R1_GCCAAT_L008_test</text>
</g>
<!-- 9&#45;&gt;1 -->
<g id="edge9" class="edge"><title>9&#45;&gt;1</title>
<path fill="none" stroke="grey" stroke-width="2" d="M2359.11,-143.88C2334.06,-132.528 2302.87,-118.398 2279.05,-107.601"/>
<polygon fill="grey" stroke="grey" stroke-width="2" points="2280.2,-104.283 2269.65,-103.344 2277.32,-110.659 2280.2,-104.283"/>
</g>
<!-- 10 -->
<g id="node11" class="node"><title>10</title>
<path fill="none" stroke="#59d856" stroke-width="2" stroke-dasharray="5,2" d="M2859.91,-185C2859.91,-185 2582.91,-185 2582.91,-185 2576.91,-185 2570.91,-179 2570.91,-173 2570.91,-173 2570.91,-156 2570.91,-156 2570.91,-150 2576.91,-144 2582.91,-144 2582.91,-144 2859.91,-144 2859.91,-144 2865.91,-144 2871.91,-150 2871.91,-156 2871.91,-156 2871.91,-173 2871.91,-173 2871.91,-179 2865.91,-185 2859.91,-185"/>
<text text-anchor="middle" x="2721.41" y="-173" font-family="sans" font-size="10.00">filter_near_sites</text>
<text text-anchor="middle" x="2721.41" y="-162" font-family="sans" font-size="10.00">n: 014</text>
<text text-anchor="middle" x="2721.41" y="-151" font-family="sans" font-size="10.00">sample: HBCRACKHiC&#45;K562&#45;DN&#45;TD&#45;R1_GCCAAT_L008_test</text>
</g>
<!-- 10&#45;&gt;1 -->
<g id="edge10" class="edge"><title>10&#45;&gt;1</title>
<path fill="none" stroke="grey" stroke-width="2" d="M2592.42,-143.976C2487.21,-128.052 2345.56,-106.612 2279.37,-96.5947"/>
<polygon fill="grey" stroke="grey" stroke-width="2" points="2279.83,-93.1236 2269.42,-95.0876 2278.78,-100.045 2279.83,-93.1236"/>
</g>
<!-- 11 -->
<g id="node12" class="node"><title>11</title>
<path fill="none" stroke="#59d856" stroke-width="2" stroke-dasharray="5,2" d="M3178.91,-185C3178.91,-185 2901.91,-185 2901.91,-185 2895.91,-185 2889.91,-179 2889.91,-173 2889.91,-173 2889.91,-156 2889.91,-156 2889.91,-150 2895.91,-144 2901.91,-144 2901.91,-144 3178.91,-144 3178.91,-144 3184.91,-144 3190.91,-150 3190.91,-156 3190.91,-156 3190.91,-173 3190.91,-173 3190.91,-179 3184.91,-185 3178.91,-185"/>
<text text-anchor="middle" x="3040.41" y="-173" font-family="sans" font-size="10.00">filter_near_sites</text>
<text text-anchor="middle" x="3040.41" y="-162" font-family="sans" font-size="10.00">n: 006</text>
<text text-anchor="middle" x="3040.41" y="-151" font-family="sans" font-size="10.00">sample: HBCRACKHiC&#45;K562&#45;DN&#45;TD&#45;R1_GCCAAT_L008_test</text>
</g>
<!-- 11&#45;&gt;1 -->
<g id="edge11" class="edge"><title>11&#45;&gt;1</title>
<path fill="none" stroke="grey" stroke-width="2" d="M2889.78,-144.874C2886.97,-144.576 2884.18,-144.284 2881.41,-144 2653.03,-120.534 2377.91,-100.48 2279.57,-93.5695"/>
<polygon fill="grey" stroke="grey" stroke-width="2" points="2279.76,-90.074 2269.54,-92.867 2279.27,-97.0569 2279.76,-90.074"/>
</g>
<!-- 12 -->
<g id="node13" class="node"><title>12</title>
<path fill="none" stroke="#59d856" stroke-width="2" stroke-dasharray="5,2" d="M3497.91,-185C3497.91,-185 3220.91,-185 3220.91,-185 3214.91,-185 3208.91,-179 3208.91,-173 3208.91,-173 3208.91,-156 3208.91,-156 3208.91,-150 3214.91,-144 3220.91,-144 3220.91,-144 3497.91,-144 3497.91,-144 3503.91,-144 3509.91,-150 3509.91,-156 3509.91,-156 3509.91,-173 3509.91,-173 3509.91,-179 3503.91,-185 3497.91,-185"/>
<text text-anchor="middle" x="3359.41" y="-173" font-family="sans" font-size="10.00">filter_near_sites</text>
<text text-anchor="middle" x="3359.41" y="-162" font-family="sans" font-size="10.00">n: 010</text>
<text text-anchor="middle" x="3359.41" y="-151" font-family="sans" font-size="10.00">sample: HBCRACKHiC&#45;K562&#45;DN&#45;TD&#45;R1_GCCAAT_L008_test</text>
</g>
<!-- 12&#45;&gt;1 -->
<g id="edge12" class="edge"><title>12&#45;&gt;1</title>
<path fill="none" stroke="grey" stroke-width="2" d="M3208.79,-144.769C3205.98,-144.503 3203.18,-144.246 3200.41,-144 2842.54,-112.192 2407.67,-96.3601 2279.57,-92.1626"/>
<polygon fill="grey" stroke="grey" stroke-width="2" points="2279.62,-88.6622 2269.51,-91.8361 2279.39,-95.6585 2279.62,-88.6622"/>
</g>
<!-- 13 -->
<g id="node14" class="node"><title>13</title>
<path fill="none" stroke="#59d856" stroke-width="2" stroke-dasharray="5,2" d="M3816.91,-185C3816.91,-185 3539.91,-185 3539.91,-185 3533.91,-185 3527.91,-179 3527.91,-173 3527.91,-173 3527.91,-156 3527.91,-156 3527.91,-150 3533.91,-144 3539.91,-144 3539.91,-144 3816.91,-144 3816.91,-144 3822.91,-144 3828.91,-150 3828.91,-156 3828.91,-156 3828.91,-173 3828.91,-173 3828.91,-179 3822.91,-185 3816.91,-185"/>
<text text-anchor="middle" x="3678.41" y="-173" font-family="sans" font-size="10.00">filter_near_sites</text>
<text text-anchor="middle" x="3678.41" y="-162" font-family="sans" font-size="10.00">n: 000</text>
<text text-anchor="middle" x="3678.41" y="-151" font-family="sans" font-size="10.00">sample: HBCRACKHiC&#45;K562&#45;DN&#45;TD&#45;R1_GCCAAT_L008_test</text>
</g>
<!-- 13&#45;&gt;1 -->
<g id="edge13" class="edge"><title>13&#45;&gt;1</title>
<path fill="none" stroke="grey" stroke-width="2" d="M3527.8,-144.716C3524.98,-144.466 3522.18,-144.227 3519.41,-144 3030.24,-103.918 2433.05,-93.5332 2279.69,-91.45"/>
<polygon fill="grey" stroke="grey" stroke-width="2" points="2279.46,-87.9469 2269.42,-91.3141 2279.37,-94.9463 2279.46,-87.9469"/>
</g>
<!-- 14 -->
<g id="node15" class="node"><title>14</title>
<path fill="none" stroke="#59d856" stroke-width="2" stroke-dasharray="5,2" d="M4135.91,-185C4135.91,-185 3858.91,-185 3858.91,-185 3852.91,-185 3846.91,-179 3846.91,-173 3846.91,-173 3846.91,-156 3846.91,-156 3846.91,-150 3852.91,-144 3858.91,-144 3858.91,-144 4135.91,-144 4135.91,-144 4141.91,-144 4147.91,-150 4147.91,-156 4147.91,-156 4147.91,-173 4147.91,-173 4147.91,-179 4141.91,-185 4135.91,-185"/>
<text text-anchor="middle" x="3997.41" y="-173" font-family="sans" font-size="10.00">filter_near_sites</text>
<text text-anchor="middle" x="3997.41" y="-162" font-family="sans" font-size="10.00">n: 003</text>
<text text-anchor="middle" x="3997.41" y="-151" font-family="sans" font-size="10.00">sample: HBCRACKHiC&#45;K562&#45;DN&#45;TD&#45;R1_GCCAAT_L008_test</text>
</g>
<!-- 14&#45;&gt;1 -->
<g id="edge14" class="edge"><title>14&#45;&gt;1</title>
<path fill="none" stroke="grey" stroke-width="2" d="M3846.8,-144.684C3843.98,-144.444 3841.18,-144.216 3838.41,-144 3216.74,-95.6525 2455.49,-91.3484 2279.79,-91.016"/>
<polygon fill="grey" stroke="grey" stroke-width="2" points="2279.54,-87.5157 2269.53,-91 2279.53,-94.5157 2279.54,-87.5157"/>
</g>
<!-- 15 -->
<g id="node16" class="node"><title>15</title>
<path fill="none" stroke="#59d856" stroke-width="2" stroke-dasharray="5,2" d="M4454.91,-185C4454.91,-185 4177.91,-185 4177.91,-185 4171.91,-185 4165.91,-179 4165.91,-173 4165.91,-173 4165.91,-156 4165.91,-156 4165.91,-150 4171.91,-144 4177.91,-144 4177.91,-144 4454.91,-144 4454.91,-144 4460.91,-144 4466.91,-150 4466.91,-156 4466.91,-156 4466.91,-173 4466.91,-173 4466.91,-179 4460.91,-185 4454.91,-185"/>
<text text-anchor="middle" x="4316.41" y="-173" font-family="sans" font-size="10.00">filter_near_sites</text>
<text text-anchor="middle" x="4316.41" y="-162" font-family="sans" font-size="10.00">n: 013</text>
<text text-anchor="middle" x="4316.41" y="-151" font-family="sans" font-size="10.00">sample: HBCRACKHiC&#45;K562&#45;DN&#45;TD&#45;R1_GCCAAT_L008_test</text>
</g>
<!-- 15&#45;&gt;1 -->
<g id="edge15" class="edge"><title>15&#45;&gt;1</title>
<path fill="none" stroke="grey" stroke-width="2" d="M4165.8,-144.663C4162.98,-144.429 4160.18,-144.208 4157.41,-144 3401.86,-87.3405 2474.55,-89.5513 2279.48,-90.7253"/>
<polygon fill="grey" stroke="grey" stroke-width="2" points="2279.44,-87.2254 2269.46,-90.7887 2279.48,-94.2253 2279.44,-87.2254"/>
</g>
<!-- 16 -->
<g id="node17" class="node"><title>16</title>
<path fill="none" stroke="#59d856" stroke-width="2" stroke-dasharray="5,2" d="M4773.91,-185C4773.91,-185 4496.91,-185 4496.91,-185 4490.91,-185 4484.91,-179 4484.91,-173 4484.91,-173 4484.91,-156 4484.91,-156 4484.91,-150 4490.91,-144 4496.91,-144 4496.91,-144 4773.91,-144 4773.91,-144 4779.91,-144 4785.91,-150 4785.91,-156 4785.91,-156 4785.91,-173 4785.91,-173 4785.91,-179 4779.91,-185 4773.91,-185"/>
<text text-anchor="middle" x="4635.41" y="-173" font-family="sans" font-size="10.00">filter_near_sites</text>
<text text-anchor="middle" x="4635.41" y="-162" font-family="sans" font-size="10.00">n: 012</text>
<text text-anchor="middle" x="4635.41" y="-151" font-family="sans" font-size="10.00">sample: HBCRACKHiC&#45;K562&#45;DN&#45;TD&#45;R1_GCCAAT_L008_test</text>
</g>
<!-- 16&#45;&gt;1 -->
<g id="edge16" class="edge"><title>16&#45;&gt;1</title>
<path fill="none" stroke="grey" stroke-width="2" d="M4484.8,-144.648C4481.98,-144.419 4479.18,-144.202 4476.41,-144 4024.16,-110.983 2535.04,-94.0712 2279.8,-91.3827"/>
<polygon fill="grey" stroke="grey" stroke-width="2" points="2279.61,-87.8806 2269.57,-91.2757 2279.53,-94.8802 2279.61,-87.8806"/>
</g>
<!-- 17 -->
<g id="node18" class="node"><title>17</title>
<path fill="none" stroke="#569ad8" stroke-width="2" stroke-dasharray="5,2" d="M616.91,-257C616.91,-257 569.91,-257 569.91,-257 563.91,-257 557.91,-251 557.91,-245 557.91,-245 557.91,-233 557.91,-233 557.91,-227 563.91,-221 569.91,-221 569.91,-221 616.91,-221 616.91,-221 622.91,-221 628.91,-227 628.91,-233 628.91,-233 628.91,-245 628.91,-245 628.91,-251 622.91,-257 616.91,-257"/>
<text text-anchor="middle" x="593.41" y="-236.5" font-family="sans" font-size="10.00">get_header</text>
</g>
<!-- 17&#45;&gt;1 -->
<g id="edge17" class="edge"><title>17&#45;&gt;1</title>
<path fill="none" stroke="grey" stroke-width="2" d="M557.808,-237.496C436.754,-235.416 46.4851,-225.592 9.41024,-185 -2.87874,-171.545 -3.32103,-157.037 9.41024,-144 49.3877,-103.062 1914.79,-92.5557 2204.71,-91.169"/>
<polygon fill="grey" stroke="grey" stroke-width="2" points="2205.13,-94.6672 2215.11,-91.12 2205.09,-87.6673 2205.13,-94.6672"/>
</g>
<!-- 18 -->
<g id="node19" class="node"><title>18</title>
<path fill="none" stroke="#97d856" stroke-width="2" stroke-dasharray="5,2" d="M2257.41,-257C2257.41,-257 2227.41,-257 2227.41,-257 2221.41,-257 2215.41,-251 2215.41,-245 2215.41,-245 2215.41,-233 2215.41,-233 2215.41,-227 2221.41,-221 2227.41,-221 2227.41,-221 2257.41,-221 2257.41,-221 2263.41,-221 2269.41,-227 2269.41,-233 2269.41,-233 2269.41,-245 2269.41,-245 2269.41,-251 2263.41,-257 2257.41,-257"/>
<text text-anchor="middle" x="2242.41" y="-236.5" font-family="sans" font-size="10.00">split</text>
</g>
<!-- 18&#45;&gt;2 -->
<g id="edge18" class="edge"><title>18&#45;&gt;2</title>
<path fill="none" stroke="grey" stroke-width="2" d="M2215.38,-238.211C2045.28,-239.338 1105.54,-242.649 329.993,-185.081"/>
<polygon fill="grey" stroke="grey" stroke-width="2" points="330.252,-181.591 320.019,-184.337 329.73,-188.572 330.252,-181.591"/>
</g>
<!-- 18&#45;&gt;3 -->
<g id="edge19" class="edge"><title>18&#45;&gt;3</title>
<path fill="none" stroke="grey" stroke-width="2" d="M2215.31,-237.999C2062.21,-237.809 1290.06,-234.373 649.388,-185.118"/>
<polygon fill="grey" stroke="grey" stroke-width="2" points="649.261,-181.597 639.02,-184.316 648.721,-188.577 649.261,-181.597"/>
</g>
<!-- 18&#45;&gt;4 -->
<g id="edge20" class="edge"><title>18&#45;&gt;4</title>
<path fill="none" stroke="grey" stroke-width="2" d="M2214.97,-237.679C2080.17,-235.932 1474.43,-226.105 968.089,-185.104"/>
<polygon fill="grey" stroke="grey" stroke-width="2" points="968.274,-181.608 958.023,-184.284 967.706,-188.585 968.274,-181.608"/>
</g>
<!-- 18&#45;&gt;5 -->
<g id="edge21" class="edge"><title>18&#45;&gt;5</title>
<path fill="none" stroke="grey" stroke-width="2" d="M2215.34,-237.163C2102.84,-233.544 1661.04,-217.964 1287.23,-185.133"/>
<polygon fill="grey" stroke="grey" stroke-width="2" points="1287.3,-181.625 1277.03,-184.231 1286.68,-188.598 1287.3,-181.625"/>
</g>
<!-- 18&#45;&gt;6 -->
<g id="edge22" class="edge"><title>18&#45;&gt;6</title>
<path fill="none" stroke="grey" stroke-width="2" d="M2215.32,-236.131C2128.41,-230.054 1848.53,-209.861 1606.1,-185.155"/>
<polygon fill="grey" stroke="grey" stroke-width="2" points="1606.34,-181.662 1596.04,-184.125 1605.63,-188.626 1606.34,-181.662"/>
</g>
<!-- 18&#45;&gt;7 -->
<g id="edge23" class="edge"><title>18&#45;&gt;7</title>
<path fill="none" stroke="grey" stroke-width="2" d="M2215.34,-233.894C2156.35,-224.948 2012.74,-203.165 1903.3,-186.566"/>
<polygon fill="grey" stroke="grey" stroke-width="2" points="1903.57,-183.066 1893.15,-185.027 1902.52,-189.987 1903.57,-183.066"/>
</g>
<!-- 18&#45;&gt;8 -->
<g id="edge24" class="edge"><title>18&#45;&gt;8</title>
<path fill="none" stroke="grey" stroke-width="2" d="M2215.08,-225.537C2193.24,-215.577 2161.99,-201.329 2135.41,-189.212"/>
<polygon fill="grey" stroke="grey" stroke-width="2" points="2136.78,-185.99 2126.23,-185.026 2133.88,-192.359 2136.78,-185.99"/>
</g>
<!-- 18&#45;&gt;9 -->
<g id="edge25" class="edge"><title>18&#45;&gt;9</title>
<path fill="none" stroke="grey" stroke-width="2" d="M2269.55,-225.701C2291.48,-215.763 2323.01,-201.478 2349.85,-189.317"/>
<polygon fill="grey" stroke="grey" stroke-width="2" points="2351.46,-192.43 2359.12,-185.114 2348.57,-186.054 2351.46,-192.43"/>
</g>
<!-- 18&#45;&gt;10 -->
<g id="edge26" class="edge"><title>18&#45;&gt;10</title>
<path fill="none" stroke="grey" stroke-width="2" d="M2269.54,-233.894C2328.65,-224.948 2472.56,-203.165 2582.23,-186.566"/>
<polygon fill="grey" stroke="grey" stroke-width="2" points="2583.03,-189.984 2592.4,-185.027 2581.99,-183.063 2583.03,-189.984"/>
</g>
<!-- 18&#45;&gt;11 -->
<g id="edge27" class="edge"><title>18&#45;&gt;11</title>
<path fill="none" stroke="grey" stroke-width="2" d="M2269.54,-236.133C2356.59,-230.061 2636.91,-209.883 2879.71,-185.156"/>
<polygon fill="grey" stroke="grey" stroke-width="2" points="2880.19,-188.625 2889.78,-184.126 2879.48,-181.662 2880.19,-188.625"/>
</g>
<!-- 18&#45;&gt;12 -->
<g id="edge28" class="edge"><title>18&#45;&gt;12</title>
<path fill="none" stroke="grey" stroke-width="2" d="M2269.51,-237.164C2382.13,-233.55 2824.39,-217.987 3198.58,-185.134"/>
<polygon fill="grey" stroke="grey" stroke-width="2" points="3199.14,-188.598 3208.79,-184.231 3198.52,-181.625 3199.14,-188.598"/>
</g>
<!-- 18&#45;&gt;13 -->
<g id="edge29" class="edge"><title>18&#45;&gt;13</title>
<path fill="none" stroke="grey" stroke-width="2" d="M2269.42,-237.686C2403.43,-235.96 3010.43,-226.174 3517.71,-185.106"/>
<polygon fill="grey" stroke="grey" stroke-width="2" points="3518.11,-188.584 3527.8,-184.284 3517.55,-181.608 3518.11,-188.584"/>
</g>
<!-- 18&#45;&gt;14 -->
<g id="edge30" class="edge"><title>18&#45;&gt;14</title>
<path fill="none" stroke="grey" stroke-width="2" d="M2269.53,-238C2422.73,-237.813 3195.36,-234.397 3836.43,-185.118"/>
<polygon fill="grey" stroke="grey" stroke-width="2" points="3837.1,-188.577 3846.8,-184.316 3836.56,-181.597 3837.1,-188.577"/>
</g>
<!-- 18&#45;&gt;15 -->
<g id="edge31" class="edge"><title>18&#45;&gt;15</title>
<path fill="none" stroke="grey" stroke-width="2" d="M2269.46,-238.211C2439.64,-239.343 3379.87,-242.673 4155.82,-185.082"/>
<polygon fill="grey" stroke="grey" stroke-width="2" points="4156.09,-188.572 4165.8,-184.337 4155.57,-181.591 4156.09,-188.572"/>
</g>
<!-- 18&#45;&gt;16 -->
<g id="edge32" class="edge"><title>18&#45;&gt;16</title>
<path fill="none" stroke="grey" stroke-width="2" d="M2269.57,-237.724C2490.47,-235.428 3996.12,-218.73 4474.72,-185.075"/>
<polygon fill="grey" stroke="grey" stroke-width="2" points="4475.08,-188.558 4484.8,-184.352 4474.58,-181.576 4475.08,-188.558"/>
</g>
<!-- 19 -->
<g id="node20" class="node"><title>19</title>
<path fill="none" stroke="#56d8d8" stroke-width="2" stroke-dasharray="5,2" d="M1691.41,-329C1691.41,-329 1587.41,-329 1587.41,-329 1581.41,-329 1575.41,-323 1575.41,-317 1575.41,-317 1575.41,-305 1575.41,-305 1575.41,-299 1581.41,-293 1587.41,-293 1587.41,-293 1691.41,-293 1691.41,-293 1697.41,-293 1703.41,-299 1703.41,-305 1703.41,-305 1703.41,-317 1703.41,-317 1703.41,-323 1697.41,-329 1691.41,-329"/>
<text text-anchor="middle" x="1639.41" y="-308.5" font-family="sans" font-size="10.00">remove_multimappers</text>
</g>
<!-- 19&#45;&gt;17 -->
<g id="edge33" class="edge"><title>19&#45;&gt;17</title>
<path fill="none" stroke="grey" stroke-width="2" d="M1575.16,-305.7C1381.5,-292.741 806.537,-254.263 639.436,-243.08"/>
<polygon fill="grey" stroke="grey" stroke-width="2" points="639.239,-239.559 629.027,-242.384 638.771,-246.544 639.239,-239.559"/>
</g>
<!-- 19&#45;&gt;18 -->
<g id="edge34" class="edge"><title>19&#45;&gt;18</title>
<path fill="none" stroke="grey" stroke-width="2" d="M1703.66,-302.542C1829.54,-287.929 2105.09,-255.941 2205.16,-244.325"/>
<polygon fill="grey" stroke="grey" stroke-width="2" points="2205.58,-247.8 2215.11,-243.17 2204.77,-240.846 2205.58,-247.8"/>
</g>
<!-- 20 -->
<g id="node21" class="node"><title>20</title>
<path fill="none" stroke="#d85656" stroke-width="2" stroke-dasharray="5,2" d="M1777.91,-401C1777.91,-401 1500.91,-401 1500.91,-401 1494.91,-401 1488.91,-395 1488.91,-389 1488.91,-389 1488.91,-377 1488.91,-377 1488.91,-371 1494.91,-365 1500.91,-365 1500.91,-365 1777.91,-365 1777.91,-365 1783.91,-365 1789.91,-371 1789.91,-377 1789.91,-377 1789.91,-389 1789.91,-389 1789.91,-395 1783.91,-401 1777.91,-401"/>
<text text-anchor="middle" x="1639.41" y="-386" font-family="sans" font-size="10.00">bowtie_map</text>
<text text-anchor="middle" x="1639.41" y="-375" font-family="sans" font-size="10.00">sample: HBCRACKHiC&#45;K562&#45;DN&#45;TD&#45;R1_GCCAAT_L008_test</text>
</g>
<!-- 20&#45;&gt;19 -->
<g id="edge35" class="edge"><title>20&#45;&gt;19</title>
<path fill="none" stroke="grey" stroke-width="2" d="M1639.41,-364.697C1639.41,-356.983 1639.41,-347.712 1639.41,-339.112"/>
<polygon fill="grey" stroke="grey" stroke-width="2" points="1642.91,-339.104 1639.41,-329.104 1635.91,-339.104 1642.91,-339.104"/>
</g>
</g>
</svg>
