<?xml version="1.0" encoding="UTF-8" standalone="no"?>
<!DOCTYPE svg PUBLIC "-//W3C//DTD SVG 1.1//EN"
 "http://www.w3.org/Graphics/SVG/1.1/DTD/svg11.dtd">
<!-- Generated by graphviz version 2.40.1 (20161225.0304)
 -->
<!-- Title: snakemake_dag Pages: 1 -->
<svg width="495pt" height="548pt"
 viewBox="0.00 0.00 495.00 548.00" xmlns="http://www.w3.org/2000/svg" xmlns:xlink="http://www.w3.org/1999/xlink">
<g id="graph0" class="graph" transform="scale(1 1) rotate(0) translate(4 544)">
<title>snakemake_dag</title>
<polygon fill="#ffffff" stroke="transparent" points="-4,4 -4,-544 491,-544 491,4 -4,4"/>
<!-- 0 -->
<g id="node1" class="node">
<title>0</title>
<path fill="none" stroke="#d87d56" stroke-width="2" d="M265.5,-36C265.5,-36 235.5,-36 235.5,-36 229.5,-36 223.5,-30 223.5,-24 223.5,-24 223.5,-12 223.5,-12 223.5,-6 229.5,0 235.5,0 235.5,0 265.5,0 265.5,0 271.5,0 277.5,-6 277.5,-12 277.5,-12 277.5,-24 277.5,-24 277.5,-30 271.5,-36 265.5,-36"/>
<text text-anchor="middle" x="250.5" y="-15.5" font-family="sans" font-size="10.00" fill="#000000">all</text>
</g>
<!-- 1 -->
<g id="node2" class="node">
<title>1</title>
<path fill="none" stroke="#d85656" stroke-width="2" d="M145,-108C145,-108 12,-108 12,-108 6,-108 0,-102 0,-96 0,-96 0,-84 0,-84 0,-78 6,-72 12,-72 12,-72 145,-72 145,-72 151,-72 157,-78 157,-84 157,-84 157,-96 157,-96 157,-102 151,-108 145,-108"/>
<text text-anchor="middle" x="78.5" y="-87.5" font-family="sans" font-size="10.00" fill="#000000">copy_number_correct_500kb</text>
</g>
<!-- 1&#45;&gt;0 -->
<g id="edge1" class="edge">
<title>1&#45;&gt;0</title>
<path fill="none" stroke="#c0c0c0" stroke-width="2" d="M121.9029,-71.8314C150.2657,-59.9585 186.8984,-44.6239 213.8061,-33.3603"/>
<polygon fill="#c0c0c0" stroke="#c0c0c0" stroke-width="2" points="215.3732,-36.4986 223.2461,-29.4086 212.6702,-30.0415 215.3732,-36.4986"/>
</g>
<!-- 2 -->
<g id="node3" class="node">
<title>2</title>
<path fill="none" stroke="#56d86b" stroke-width="2" d="M314,-108C314,-108 187,-108 187,-108 181,-108 175,-102 175,-96 175,-96 175,-84 175,-84 175,-78 181,-72 187,-72 187,-72 314,-72 314,-72 320,-72 326,-78 326,-84 326,-84 326,-96 326,-96 326,-102 320,-108 314,-108"/>
<text text-anchor="middle" x="250.5" y="-87.5" font-family="sans" font-size="10.00" fill="#000000">copy_number_correct_40kb</text>
</g>
<!-- 2&#45;&gt;0 -->
<g id="edge2" class="edge">
<title>2&#45;&gt;0</title>
<path fill="none" stroke="#c0c0c0" stroke-width="2" d="M250.5,-71.8314C250.5,-64.131 250.5,-54.9743 250.5,-46.4166"/>
<polygon fill="#c0c0c0" stroke="#c0c0c0" stroke-width="2" points="254.0001,-46.4132 250.5,-36.4133 247.0001,-46.4133 254.0001,-46.4132"/>
</g>
<!-- 3 -->
<g id="node4" class="node">
<title>3</title>
<path fill="none" stroke="#567bd8" stroke-width="2" d="M475,-108C475,-108 356,-108 356,-108 350,-108 344,-102 344,-96 344,-96 344,-84 344,-84 344,-78 350,-72 356,-72 356,-72 475,-72 475,-72 481,-72 487,-78 487,-84 487,-84 487,-96 487,-96 487,-102 481,-108 475,-108"/>
<text text-anchor="middle" x="415.5" y="-87.5" font-family="sans" font-size="10.00" fill="#000000">plot_distance_distribution</text>
</g>
<!-- 3&#45;&gt;0 -->
<g id="edge3" class="edge">
<title>3&#45;&gt;0</title>
<path fill="none" stroke="#c0c0c0" stroke-width="2" d="M373.8635,-71.8314C347.113,-60.1584 312.6939,-45.1391 287.0118,-33.9324"/>
<polygon fill="#c0c0c0" stroke="#c0c0c0" stroke-width="2" points="288.1961,-30.6305 277.6309,-29.8389 285.3964,-37.0463 288.1961,-30.6305"/>
</g>
<!-- 4 -->
<g id="node5" class="node">
<title>4</title>
<path fill="none" stroke="#68d856" stroke-width="2" d="M145,-180C145,-180 102,-180 102,-180 96,-180 90,-174 90,-168 90,-168 90,-156 90,-156 90,-150 96,-144 102,-144 102,-144 145,-144 145,-144 151,-144 157,-150 157,-156 157,-156 157,-168 157,-168 157,-174 151,-180 145,-180"/>
<text text-anchor="middle" x="123.5" y="-159.5" font-family="sans" font-size="10.00" fill="#000000">bin_500kb</text>
</g>
<!-- 4&#45;&gt;1 -->
<g id="edge4" class="edge">
<title>4&#45;&gt;1</title>
<path fill="none" stroke="#c0c0c0" stroke-width="2" d="M112.1446,-143.8314C107.0674,-135.7079 100.9773,-125.9637 95.3824,-117.0118"/>
<polygon fill="#c0c0c0" stroke="#c0c0c0" stroke-width="2" points="98.2763,-115.0383 90.0083,-108.4133 92.3403,-118.7483 98.2763,-115.0383"/>
</g>
<!-- 5 -->
<g id="node6" class="node">
<title>5</title>
<path fill="none" stroke="#d8a456" stroke-width="2" d="M269,-180C269,-180 232,-180 232,-180 226,-180 220,-174 220,-168 220,-168 220,-156 220,-156 220,-150 226,-144 232,-144 232,-144 269,-144 269,-144 275,-144 281,-150 281,-156 281,-156 281,-168 281,-168 281,-174 275,-180 269,-180"/>
<text text-anchor="middle" x="250.5" y="-159.5" font-family="sans" font-size="10.00" fill="#000000">bin_40kb</text>
</g>
<!-- 5&#45;&gt;2 -->
<g id="edge5" class="edge">
<title>5&#45;&gt;2</title>
<path fill="none" stroke="#c0c0c0" stroke-width="2" d="M250.5,-143.8314C250.5,-136.131 250.5,-126.9743 250.5,-118.4166"/>
<polygon fill="#c0c0c0" stroke="#c0c0c0" stroke-width="2" points="254.0001,-118.4132 250.5,-108.4133 247.0001,-118.4133 254.0001,-118.4132"/>
</g>
<!-- 6 -->
<g id="node7" class="node">
<title>6</title>
<path fill="none" stroke="#56d8b9" stroke-width="2" stroke-dasharray="1,5" d="M410.5,-252C410.5,-252 334.5,-252 334.5,-252 328.5,-252 322.5,-246 322.5,-240 322.5,-240 322.5,-228 322.5,-228 322.5,-222 328.5,-216 334.5,-216 334.5,-216 410.5,-216 410.5,-216 416.5,-216 422.5,-222 422.5,-228 422.5,-228 422.5,-240 422.5,-240 422.5,-246 416.5,-252 410.5,-252"/>
<text text-anchor="middle" x="372.5" y="-231.5" font-family="sans" font-size="10.00" fill="#000000">merge_distances</text>
</g>
<!-- 6&#45;&gt;3 -->
<g id="edge6" class="edge">
<title>6&#45;&gt;3</title>
<path fill="none" stroke="#c0c0c0" stroke-width="2" d="M377.946,-215.7623C385.3126,-191.0928 398.521,-146.8598 407.1469,-117.9731"/>
<polygon fill="#c0c0c0" stroke="#c0c0c0" stroke-width="2" points="410.5906,-118.673 410.0982,-108.0896 403.8832,-116.6701 410.5906,-118.673"/>
</g>
<!-- 7 -->
<g id="node8" class="node">
<title>7</title>
<path fill="none" stroke="#8fd856" stroke-width="2" stroke-dasharray="1,5" d="M278.5,-252C278.5,-252 222.5,-252 222.5,-252 216.5,-252 210.5,-246 210.5,-240 210.5,-240 210.5,-228 210.5,-228 210.5,-222 216.5,-216 222.5,-216 222.5,-216 278.5,-216 278.5,-216 284.5,-216 290.5,-222 290.5,-228 290.5,-228 290.5,-240 290.5,-240 290.5,-246 284.5,-252 278.5,-252"/>
<text text-anchor="middle" x="250.5" y="-231.5" font-family="sans" font-size="10.00" fill="#000000">merge_sams</text>
</g>
<!-- 7&#45;&gt;4 -->
<g id="edge7" class="edge">
<title>7&#45;&gt;4</title>
<path fill="none" stroke="#c0c0c0" stroke-width="2" d="M218.4525,-215.8314C202.058,-206.5368 181.9214,-195.1208 164.4171,-185.1971"/>
<polygon fill="#c0c0c0" stroke="#c0c0c0" stroke-width="2" points="165.9626,-182.05 155.5372,-180.1628 162.5103,-188.1395 165.9626,-182.05"/>
</g>
<!-- 7&#45;&gt;5 -->
<g id="edge8" class="edge">
<title>7&#45;&gt;5</title>
<path fill="none" stroke="#c0c0c0" stroke-width="2" d="M250.5,-215.8314C250.5,-208.131 250.5,-198.9743 250.5,-190.4166"/>
<polygon fill="#c0c0c0" stroke="#c0c0c0" stroke-width="2" points="254.0001,-190.4132 250.5,-180.4133 247.0001,-190.4133 254.0001,-190.4132"/>
</g>
<!-- 8 -->
<g id="node9" class="node">
<title>8</title>
<path fill="none" stroke="#b6d856" stroke-width="2" stroke-dasharray="1,5" d="M387,-324C387,-324 316,-324 316,-324 310,-324 304,-318 304,-312 304,-312 304,-300 304,-300 304,-294 310,-288 316,-288 316,-288 387,-288 387,-288 393,-288 399,-294 399,-300 399,-300 399,-312 399,-312 399,-318 393,-324 387,-324"/>
<text text-anchor="middle" x="351.5" y="-303.5" font-family="sans" font-size="10.00" fill="#000000">filter_near_sites</text>
</g>
<!-- 8&#45;&gt;6 -->
<g id="edge9" class="edge">
<title>8&#45;&gt;6</title>
<path fill="none" stroke="#c0c0c0" stroke-width="2" d="M356.7992,-287.8314C359.0698,-280.0463 361.7746,-270.7729 364.294,-262.1347"/>
<polygon fill="#c0c0c0" stroke="#c0c0c0" stroke-width="2" points="367.6894,-262.9933 367.1295,-252.4133 360.9694,-261.0332 367.6894,-262.9933"/>
</g>
<!-- 8&#45;&gt;7 -->
<g id="edge11" class="edge">
<title>8&#45;&gt;7</title>
<path fill="none" stroke="#c0c0c0" stroke-width="2" d="M326.0134,-287.8314C313.3341,-278.7927 297.8404,-267.7476 284.1945,-258.0198"/>
<polygon fill="#c0c0c0" stroke="#c0c0c0" stroke-width="2" points="286.1529,-255.1176 275.9784,-252.1628 282.0895,-260.8176 286.1529,-255.1176"/>
</g>
<!-- 9 -->
<g id="node10" class="node">
<title>9</title>
<path fill="none" stroke="#56d0d8" stroke-width="2" d="M274,-324C274,-324 227,-324 227,-324 221,-324 215,-318 215,-312 215,-312 215,-300 215,-300 215,-294 221,-288 227,-288 227,-288 274,-288 274,-288 280,-288 286,-294 286,-300 286,-300 286,-312 286,-312 286,-318 280,-324 274,-324"/>
<text text-anchor="middle" x="250.5" y="-303.5" font-family="sans" font-size="10.00" fill="#000000">get_header</text>
</g>
<!-- 9&#45;&gt;7 -->
<g id="edge10" class="edge">
<title>9&#45;&gt;7</title>
<path fill="none" stroke="#c0c0c0" stroke-width="2" d="M250.5,-287.8314C250.5,-280.131 250.5,-270.9743 250.5,-262.4166"/>
<polygon fill="#c0c0c0" stroke="#c0c0c0" stroke-width="2" points="254.0001,-262.4132 250.5,-252.4133 247.0001,-262.4133 254.0001,-262.4132"/>
</g>
<!-- 10 -->
<g id="node11" class="node">
<title>10</title>
<path fill="none" stroke="#56a9d8" stroke-width="2" d="M354.5,-396C354.5,-396 324.5,-396 324.5,-396 318.5,-396 312.5,-390 312.5,-384 312.5,-384 312.5,-372 312.5,-372 312.5,-366 318.5,-360 324.5,-360 324.5,-360 354.5,-360 354.5,-360 360.5,-360 366.5,-366 366.5,-372 366.5,-372 366.5,-384 366.5,-384 366.5,-390 360.5,-396 354.5,-396"/>
<text text-anchor="middle" x="339.5" y="-381" font-family="sans" font-size="10.00" fill="#000000">split</text>
<text text-anchor="middle" x="339.5" y="-370" font-family="sans" font-size="10.00" fill="#000000">n: ...</text>
</g>
<!-- 10&#45;&gt;8 -->
<g id="edge12" class="edge">
<title>10&#45;&gt;8</title>
<path fill="none" stroke="#c0c0c0" stroke-width="2" d="M342.5281,-359.8314C343.8115,-352.131 345.3376,-342.9743 346.7639,-334.4166"/>
<polygon fill="#c0c0c0" stroke="#c0c0c0" stroke-width="2" points="350.2394,-334.8526 348.4311,-324.4133 343.3347,-333.7018 350.2394,-334.8526"/>
</g>
<!-- 11 -->
<g id="node12" class="node">
<title>11</title>
<path fill="none" stroke="#d8cb56" stroke-width="2" d="M352.5,-468C352.5,-468 248.5,-468 248.5,-468 242.5,-468 236.5,-462 236.5,-456 236.5,-456 236.5,-444 236.5,-444 236.5,-438 242.5,-432 248.5,-432 248.5,-432 352.5,-432 352.5,-432 358.5,-432 364.5,-438 364.5,-444 364.5,-444 364.5,-456 364.5,-456 364.5,-462 358.5,-468 352.5,-468"/>
<text text-anchor="middle" x="300.5" y="-447.5" font-family="sans" font-size="10.00" fill="#000000">remove_multimappers</text>
</g>
<!-- 11&#45;&gt;9 -->
<g id="edge13" class="edge">
<title>11&#45;&gt;9</title>
<path fill="none" stroke="#c0c0c0" stroke-width="2" d="M294.1675,-431.7623C285.5641,-406.9846 270.1081,-362.4714 260.0812,-333.5939"/>
<polygon fill="#c0c0c0" stroke="#c0c0c0" stroke-width="2" points="263.3677,-332.3883 256.7811,-324.0896 256.7549,-334.6844 263.3677,-332.3883"/>
</g>
<!-- 11&#45;&gt;10 -->
<g id="edge14" class="edge">
<title>11&#45;&gt;10</title>
<path fill="none" stroke="#c0c0c0" stroke-width="2" d="M310.3413,-431.8314C314.6957,-423.7925 319.9098,-414.1666 324.7169,-405.2918"/>
<polygon fill="#c0c0c0" stroke="#c0c0c0" stroke-width="2" points="327.8408,-406.8732 329.5261,-396.4133 321.6857,-403.5392 327.8408,-406.8732"/>
</g>
<!-- 12 -->
<g id="node13" class="node">
<title>12</title>
<path fill="none" stroke="#56d892" stroke-width="2" d="M345,-540C345,-540 256,-540 256,-540 250,-540 244,-534 244,-528 244,-528 244,-516 244,-516 244,-510 250,-504 256,-504 256,-504 345,-504 345,-504 351,-504 357,-510 357,-516 357,-516 357,-528 357,-528 357,-534 351,-540 345,-540"/>
<text text-anchor="middle" x="300.5" y="-525" font-family="sans" font-size="10.00" fill="#000000">bowtie_map</text>
<text text-anchor="middle" x="300.5" y="-514" font-family="sans" font-size="10.00" fill="#000000">sample: SAMPLE_ID</text>
</g>
<!-- 12&#45;&gt;11 -->
<g id="edge15" class="edge">
<title>12&#45;&gt;11</title>
<path fill="none" stroke="#c0c0c0" stroke-width="2" d="M300.5,-503.8314C300.5,-496.131 300.5,-486.9743 300.5,-478.4166"/>
<polygon fill="#c0c0c0" stroke="#c0c0c0" stroke-width="2" points="304.0001,-478.4132 300.5,-468.4133 297.0001,-478.4133 304.0001,-478.4132"/>
</g>
</g>
</svg>
