<?xml version="1.0" encoding="UTF-8" standalone="no"?>
<!DOCTYPE svg PUBLIC "-//W3C//DTD SVG 1.1//EN"
 "http://www.w3.org/Graphics/SVG/1.1/DTD/svg11.dtd">
<!-- Generated by graphviz version 2.40.1 (20161225.0304)
 -->
<!-- Title: snakemake_dag Pages: 1 -->
<svg width="965pt" height="553pt"
 viewBox="0.00 0.00 964.51 553.00" xmlns="http://www.w3.org/2000/svg" xmlns:xlink="http://www.w3.org/1999/xlink">
<g id="graph0" class="graph" transform="scale(1 1) rotate(0) translate(4 549)">
<title>snakemake_dag</title>
<polygon fill="#ffffff" stroke="transparent" points="-4,4 -4,-549 960.5131,-549 960.5131,4 -4,4"/>
<!-- 0 -->
<g id="node1" class="node">
<title>0</title>
<path fill="none" stroke="#56d8c9" stroke-width="2" stroke-dasharray="5,2" d="M652.5,-36C652.5,-36 622.5,-36 622.5,-36 616.5,-36 610.5,-30 610.5,-24 610.5,-24 610.5,-12 610.5,-12 610.5,-6 616.5,0 622.5,0 622.5,0 652.5,0 652.5,0 658.5,0 664.5,-6 664.5,-12 664.5,-12 664.5,-24 664.5,-24 664.5,-30 658.5,-36 652.5,-36"/>
<text text-anchor="middle" x="637.5" y="-15.5" font-family="sans" font-size="10.00" fill="#000000">all</text>
</g>
<!-- 1 -->
<g id="node2" class="node">
<title>1</title>
<path fill="none" stroke="#d85656" stroke-width="2" stroke-dasharray="5,2" d="M873,-108C873,-108 746,-108 746,-108 740,-108 734,-102 734,-96 734,-96 734,-84 734,-84 734,-78 740,-72 746,-72 746,-72 873,-72 873,-72 879,-72 885,-78 885,-84 885,-84 885,-96 885,-96 885,-102 879,-108 873,-108"/>
<text text-anchor="middle" x="809.5" y="-87.5" font-family="sans" font-size="10.00" fill="#000000">copy_number_correct_40kb</text>
</g>
<!-- 1&#45;&gt;0 -->
<g id="edge1" class="edge">
<title>1&#45;&gt;0</title>
<path fill="none" stroke="#c0c0c0" stroke-width="2" d="M766.0971,-71.8314C737.7343,-59.9585 701.1016,-44.6239 674.1939,-33.3603"/>
<polygon fill="#c0c0c0" stroke="#c0c0c0" stroke-width="2" points="675.3298,-30.0415 664.7539,-29.4086 672.6268,-36.4986 675.3298,-30.0415"/>
</g>
<!-- 2 -->
<g id="node3" class="node">
<title>2</title>
<path fill="none" stroke="#d87d56" stroke-width="2" stroke-dasharray="5,2" d="M529,-108C529,-108 410,-108 410,-108 404,-108 398,-102 398,-96 398,-96 398,-84 398,-84 398,-78 404,-72 410,-72 410,-72 529,-72 529,-72 535,-72 541,-78 541,-84 541,-84 541,-96 541,-96 541,-102 535,-108 529,-108"/>
<text text-anchor="middle" x="469.5" y="-87.5" font-family="sans" font-size="10.00" fill="#000000">plot_distance_distribution</text>
</g>
<!-- 2&#45;&gt;0 -->
<g id="edge2" class="edge">
<title>2&#45;&gt;0</title>
<path fill="none" stroke="#c0c0c0" stroke-width="2" d="M511.8935,-71.8314C539.4236,-60.0328 574.9305,-44.8155 601.1655,-33.5719"/>
<polygon fill="#c0c0c0" stroke="#c0c0c0" stroke-width="2" points="602.5669,-36.7793 610.3796,-29.623 599.8094,-30.3453 602.5669,-36.7793"/>
</g>
<!-- 3 -->
<g id="node4" class="node">
<title>3</title>
<path fill="none" stroke="#d8a456" stroke-width="2" stroke-dasharray="5,2" d="M704,-108C704,-108 571,-108 571,-108 565,-108 559,-102 559,-96 559,-96 559,-84 559,-84 559,-78 565,-72 571,-72 571,-72 704,-72 704,-72 710,-72 716,-78 716,-84 716,-84 716,-96 716,-96 716,-102 710,-108 704,-108"/>
<text text-anchor="middle" x="637.5" y="-87.5" font-family="sans" font-size="10.00" fill="#000000">copy_number_correct_500kb</text>
</g>
<!-- 3&#45;&gt;0 -->
<g id="edge3" class="edge">
<title>3&#45;&gt;0</title>
<path fill="none" stroke="#c0c0c0" stroke-width="2" d="M637.5,-71.8314C637.5,-64.131 637.5,-54.9743 637.5,-46.4166"/>
<polygon fill="#c0c0c0" stroke="#c0c0c0" stroke-width="2" points="641.0001,-46.4132 637.5,-36.4133 634.0001,-46.4133 641.0001,-46.4132"/>
</g>
<!-- 4 -->
<g id="node5" class="node">
<title>4</title>
<path fill="none" stroke="#59d856" stroke-width="2" stroke-dasharray="5,2" d="M805,-180C805,-180 768,-180 768,-180 762,-180 756,-174 756,-168 756,-168 756,-156 756,-156 756,-150 762,-144 768,-144 768,-144 805,-144 805,-144 811,-144 817,-150 817,-156 817,-156 817,-168 817,-168 817,-174 811,-180 805,-180"/>
<text text-anchor="middle" x="786.5" y="-159.5" font-family="sans" font-size="10.00" fill="#000000">bin_40kb</text>
</g>
<!-- 4&#45;&gt;1 -->
<g id="edge4" class="edge">
<title>4&#45;&gt;1</title>
<path fill="none" stroke="#c0c0c0" stroke-width="2" d="M792.3039,-143.8314C794.7908,-136.0463 797.7531,-126.7729 800.5125,-118.1347"/>
<polygon fill="#c0c0c0" stroke="#c0c0c0" stroke-width="2" points="803.909,-119.0041 803.618,-108.4133 797.2409,-116.874 803.909,-119.0041"/>
</g>
<!-- 5 -->
<g id="node6" class="node">
<title>5</title>
<path fill="none" stroke="#56d8a2" stroke-width="2" stroke-dasharray="5,2" d="M507.5,-252C507.5,-252 431.5,-252 431.5,-252 425.5,-252 419.5,-246 419.5,-240 419.5,-240 419.5,-228 419.5,-228 419.5,-222 425.5,-216 431.5,-216 431.5,-216 507.5,-216 507.5,-216 513.5,-216 519.5,-222 519.5,-228 519.5,-228 519.5,-240 519.5,-240 519.5,-246 513.5,-252 507.5,-252"/>
<text text-anchor="middle" x="469.5" y="-231.5" font-family="sans" font-size="10.00" fill="#000000">merge_distances</text>
</g>
<!-- 5&#45;&gt;2 -->
<g id="edge5" class="edge">
<title>5&#45;&gt;2</title>
<path fill="none" stroke="#c0c0c0" stroke-width="2" d="M469.5,-215.7623C469.5,-191.201 469.5,-147.2474 469.5,-118.3541"/>
<polygon fill="#c0c0c0" stroke="#c0c0c0" stroke-width="2" points="473.0001,-118.0896 469.5,-108.0896 466.0001,-118.0897 473.0001,-118.0896"/>
</g>
<!-- 6 -->
<g id="node7" class="node">
<title>6</title>
<path fill="none" stroke="#56d87b" stroke-width="2" stroke-dasharray="5,2" d="M681,-180C681,-180 638,-180 638,-180 632,-180 626,-174 626,-168 626,-168 626,-156 626,-156 626,-150 632,-144 638,-144 638,-144 681,-144 681,-144 687,-144 693,-150 693,-156 693,-156 693,-168 693,-168 693,-174 687,-180 681,-180"/>
<text text-anchor="middle" x="659.5" y="-159.5" font-family="sans" font-size="10.00" fill="#000000">bin_500kb</text>
</g>
<!-- 6&#45;&gt;3 -->
<g id="edge6" class="edge">
<title>6&#45;&gt;3</title>
<path fill="none" stroke="#c0c0c0" stroke-width="2" d="M653.9485,-143.8314C651.5697,-136.0463 648.7362,-126.7729 646.0967,-118.1347"/>
<polygon fill="#c0c0c0" stroke="#c0c0c0" stroke-width="2" points="649.3958,-116.954 643.1263,-108.4133 642.7013,-118.9996 649.3958,-116.954"/>
</g>
<!-- 7 -->
<g id="node8" class="node">
<title>7</title>
<path fill="none" stroke="#9fd856" stroke-width="2" stroke-dasharray="5,2" d="M728.5,-252C728.5,-252 672.5,-252 672.5,-252 666.5,-252 660.5,-246 660.5,-240 660.5,-240 660.5,-228 660.5,-228 660.5,-222 666.5,-216 672.5,-216 672.5,-216 728.5,-216 728.5,-216 734.5,-216 740.5,-222 740.5,-228 740.5,-228 740.5,-240 740.5,-240 740.5,-246 734.5,-252 728.5,-252"/>
<text text-anchor="middle" x="700.5" y="-231.5" font-family="sans" font-size="10.00" fill="#000000">merge_sams</text>
</g>
<!-- 7&#45;&gt;4 -->
<g id="edge7" class="edge">
<title>7&#45;&gt;4</title>
<path fill="none" stroke="#c0c0c0" stroke-width="2" d="M722.2014,-215.8314C732.6921,-207.0485 745.4455,-196.3712 756.8194,-186.8489"/>
<polygon fill="#c0c0c0" stroke="#c0c0c0" stroke-width="2" points="759.3847,-189.2659 764.8055,-180.1628 754.8911,-183.8986 759.3847,-189.2659"/>
</g>
<!-- 7&#45;&gt;6 -->
<g id="edge11" class="edge">
<title>7&#45;&gt;6</title>
<path fill="none" stroke="#c0c0c0" stroke-width="2" d="M690.154,-215.8314C685.5763,-207.7925 680.0948,-198.1666 675.0412,-189.2918"/>
<polygon fill="#c0c0c0" stroke="#c0c0c0" stroke-width="2" points="677.9752,-187.3712 669.9853,-180.4133 671.8923,-190.8351 677.9752,-187.3712"/>
</g>
<!-- 8 -->
<g id="node9" class="node">
<title>8</title>
<path fill="none" stroke="#78d856" stroke-width="2" stroke-dasharray="5,2" d="M289,-329C289,-329 12,-329 12,-329 6,-329 0,-323 0,-317 0,-317 0,-300 0,-300 0,-294 6,-288 12,-288 12,-288 289,-288 289,-288 295,-288 301,-294 301,-300 301,-300 301,-317 301,-317 301,-323 295,-329 289,-329"/>
<text text-anchor="middle" x="150.5" y="-317" font-family="sans" font-size="10.00" fill="#000000">filter_near_sites</text>
<text text-anchor="middle" x="150.5" y="-306" font-family="sans" font-size="10.00" fill="#000000">n: 000</text>
<text text-anchor="middle" x="150.5" y="-295" font-family="sans" font-size="10.00" fill="#000000">sample: HBCRACKHiC&#45;K562&#45;DN&#45;TD&#45;R1_GCCAAT_L008_test</text>
</g>
<!-- 8&#45;&gt;5 -->
<g id="edge8" class="edge">
<title>8&#45;&gt;5</title>
<path fill="none" stroke="#c0c0c0" stroke-width="2" d="M238.5126,-287.9453C292.9188,-275.2392 361.317,-259.2653 409.5194,-248.008"/>
<polygon fill="#c0c0c0" stroke="#c0c0c0" stroke-width="2" points="410.5444,-251.3629 419.4864,-245.6803 408.9524,-244.5463 410.5444,-251.3629"/>
</g>
<!-- 8&#45;&gt;7 -->
<g id="edge12" class="edge">
<title>8&#45;&gt;7</title>
<path fill="none" stroke="#c0c0c0" stroke-width="2" d="M301.1535,-288.0933C417.7268,-272.3029 572.0621,-251.3975 650.3454,-240.7937"/>
<polygon fill="#c0c0c0" stroke="#c0c0c0" stroke-width="2" points="650.9798,-244.2398 660.4195,-239.4291 650.0401,-237.3031 650.9798,-244.2398"/>
</g>
<!-- 9 -->
<g id="node10" class="node">
<title>9</title>
<path fill="none" stroke="#78d856" stroke-width="2" stroke-dasharray="5,2" d="M608,-329C608,-329 331,-329 331,-329 325,-329 319,-323 319,-317 319,-317 319,-300 319,-300 319,-294 325,-288 331,-288 331,-288 608,-288 608,-288 614,-288 620,-294 620,-300 620,-300 620,-317 620,-317 620,-323 614,-329 608,-329"/>
<text text-anchor="middle" x="469.5" y="-317" font-family="sans" font-size="10.00" fill="#000000">filter_near_sites</text>
<text text-anchor="middle" x="469.5" y="-306" font-family="sans" font-size="10.00" fill="#000000">n: 001</text>
<text text-anchor="middle" x="469.5" y="-295" font-family="sans" font-size="10.00" fill="#000000">sample: HBCRACKHiC&#45;K562&#45;DN&#45;TD&#45;R1_GCCAAT_L008_test</text>
</g>
<!-- 9&#45;&gt;5 -->
<g id="edge9" class="edge">
<title>9&#45;&gt;5</title>
<path fill="none" stroke="#c0c0c0" stroke-width="2" d="M469.5,-287.7476C469.5,-279.8767 469.5,-270.7743 469.5,-262.3232"/>
<polygon fill="#c0c0c0" stroke="#c0c0c0" stroke-width="2" points="473.0001,-262.1086 469.5,-252.1087 466.0001,-262.1087 473.0001,-262.1086"/>
</g>
<!-- 9&#45;&gt;7 -->
<g id="edge13" class="edge">
<title>9&#45;&gt;7</title>
<path fill="none" stroke="#c0c0c0" stroke-width="2" d="M533.2333,-287.9453C570.1833,-276.0286 616.0455,-261.2375 650.3968,-250.1588"/>
<polygon fill="#c0c0c0" stroke="#c0c0c0" stroke-width="2" points="651.7704,-253.3934 660.2134,-246.9929 649.6217,-246.7313 651.7704,-253.3934"/>
</g>
<!-- 10 -->
<g id="node11" class="node">
<title>10</title>
<path fill="none" stroke="#78d856" stroke-width="2" stroke-dasharray="5,2" d="M927,-329C927,-329 650,-329 650,-329 644,-329 638,-323 638,-317 638,-317 638,-300 638,-300 638,-294 644,-288 650,-288 650,-288 927,-288 927,-288 933,-288 939,-294 939,-300 939,-300 939,-317 939,-317 939,-323 933,-329 927,-329"/>
<text text-anchor="middle" x="788.5" y="-317" font-family="sans" font-size="10.00" fill="#000000">filter_near_sites</text>
<text text-anchor="middle" x="788.5" y="-306" font-family="sans" font-size="10.00" fill="#000000">n: 002</text>
<text text-anchor="middle" x="788.5" y="-295" font-family="sans" font-size="10.00" fill="#000000">sample: HBCRACKHiC&#45;K562&#45;DN&#45;TD&#45;R1_GCCAAT_L008_test</text>
</g>
<!-- 10&#45;&gt;5 -->
<g id="edge10" class="edge">
<title>10&#45;&gt;5</title>
<path fill="none" stroke="#c0c0c0" stroke-width="2" d="M700.4874,-287.9453C646.0812,-275.2392 577.683,-259.2653 529.4806,-248.008"/>
<polygon fill="#c0c0c0" stroke="#c0c0c0" stroke-width="2" points="530.0476,-244.5463 519.5136,-245.6803 528.4556,-251.3629 530.0476,-244.5463"/>
</g>
<!-- 10&#45;&gt;7 -->
<g id="edge14" class="edge">
<title>10&#45;&gt;7</title>
<path fill="none" stroke="#c0c0c0" stroke-width="2" d="M763.9871,-287.7476C753.347,-278.7398 740.8016,-268.119 729.6848,-258.7076"/>
<polygon fill="#c0c0c0" stroke="#c0c0c0" stroke-width="2" points="731.7838,-255.8988 721.8901,-252.1087 727.2609,-261.2414 731.7838,-255.8988"/>
</g>
<!-- 11 -->
<g id="node12" class="node">
<title>11</title>
<path fill="none" stroke="#567bd8" stroke-width="2" stroke-dasharray="5,2" d="M862,-401C862,-401 815,-401 815,-401 809,-401 803,-395 803,-389 803,-389 803,-377 803,-377 803,-371 809,-365 815,-365 815,-365 862,-365 862,-365 868,-365 874,-371 874,-377 874,-377 874,-389 874,-389 874,-395 868,-401 862,-401"/>
<text text-anchor="middle" x="838.5" y="-380.5" font-family="sans" font-size="10.00" fill="#000000">get_header</text>
</g>
<!-- 11&#45;&gt;7 -->
<g id="edge15" class="edge">
<title>11&#45;&gt;7</title>
<path fill="none" stroke="#c0c0c0" stroke-width="2" d="M874.2052,-375.8917C899.7471,-368.7403 932.3555,-354.9104 948.5,-329 958.1365,-313.5343 959.9325,-302.1897 948.5,-288 924.1607,-257.7907 815.9777,-243.5914 750.8032,-237.67"/>
<polygon fill="#c0c0c0" stroke="#c0c0c0" stroke-width="2" points="750.9986,-234.1738 740.7318,-236.7895 750.3889,-241.1472 750.9986,-234.1738"/>
</g>
<!-- 12 -->
<g id="node13" class="node">
<title>12</title>
<path fill="none" stroke="#c6d856" stroke-width="2" stroke-dasharray="5,2" d="M643.5,-401C643.5,-401 613.5,-401 613.5,-401 607.5,-401 601.5,-395 601.5,-389 601.5,-389 601.5,-377 601.5,-377 601.5,-371 607.5,-365 613.5,-365 613.5,-365 643.5,-365 643.5,-365 649.5,-365 655.5,-371 655.5,-377 655.5,-377 655.5,-389 655.5,-389 655.5,-395 649.5,-401 643.5,-401"/>
<text text-anchor="middle" x="628.5" y="-380.5" font-family="sans" font-size="10.00" fill="#000000">split</text>
</g>
<!-- 12&#45;&gt;8 -->
<g id="edge16" class="edge">
<title>12&#45;&gt;8</title>
<path fill="none" stroke="#c0c0c0" stroke-width="2" d="M601.4311,-378.7811C542.9705,-369.6696 401.3838,-347.6022 292.3289,-330.6051"/>
<polygon fill="#c0c0c0" stroke="#c0c0c0" stroke-width="2" points="292.6337,-327.1105 282.2139,-329.0286 291.5556,-334.027 292.6337,-327.1105"/>
</g>
<!-- 12&#45;&gt;9 -->
<g id="edge17" class="edge">
<title>12&#45;&gt;9</title>
<path fill="none" stroke="#c0c0c0" stroke-width="2" d="M601.1669,-370.193C579.6426,-360.1077 548.9841,-345.7425 522.6661,-333.4112"/>
<polygon fill="#c0c0c0" stroke="#c0c0c0" stroke-width="2" points="524.1006,-330.2182 513.5603,-329.1446 521.1305,-336.5569 524.1006,-330.2182"/>
</g>
<!-- 12&#45;&gt;10 -->
<g id="edge18" class="edge">
<title>12&#45;&gt;10</title>
<path fill="none" stroke="#c0c0c0" stroke-width="2" d="M655.6418,-370.3621C677.335,-360.2612 708.414,-345.7901 735.0591,-333.3834"/>
<polygon fill="#c0c0c0" stroke="#c0c0c0" stroke-width="2" points="736.6882,-336.4858 744.2762,-329.0917 733.7334,-330.1399 736.6882,-336.4858"/>
</g>
<!-- 13 -->
<g id="node14" class="node">
<title>13</title>
<path fill="none" stroke="#56c9d8" stroke-width="2" stroke-dasharray="5,2" d="M720.5,-473C720.5,-473 616.5,-473 616.5,-473 610.5,-473 604.5,-467 604.5,-461 604.5,-461 604.5,-449 604.5,-449 604.5,-443 610.5,-437 616.5,-437 616.5,-437 720.5,-437 720.5,-437 726.5,-437 732.5,-443 732.5,-449 732.5,-449 732.5,-461 732.5,-461 732.5,-467 726.5,-473 720.5,-473"/>
<text text-anchor="middle" x="668.5" y="-452.5" font-family="sans" font-size="10.00" fill="#000000">remove_multimappers</text>
</g>
<!-- 13&#45;&gt;11 -->
<g id="edge19" class="edge">
<title>13&#45;&gt;11</title>
<path fill="none" stroke="#c0c0c0" stroke-width="2" d="M711.3982,-436.8314C736.43,-426.2296 767.9791,-412.8677 793.3824,-402.1086"/>
<polygon fill="#c0c0c0" stroke="#c0c0c0" stroke-width="2" points="794.948,-405.2466 802.7912,-398.1237 792.218,-398.8009 794.948,-405.2466"/>
</g>
<!-- 13&#45;&gt;12 -->
<g id="edge20" class="edge">
<title>13&#45;&gt;12</title>
<path fill="none" stroke="#c0c0c0" stroke-width="2" d="M658.4063,-436.8314C653.9403,-428.7925 648.5925,-419.1666 643.6621,-410.2918"/>
<polygon fill="#c0c0c0" stroke="#c0c0c0" stroke-width="2" points="646.6456,-408.4551 638.7296,-401.4133 640.5265,-411.8546 646.6456,-408.4551"/>
</g>
<!-- 14 -->
<g id="node15" class="node">
<title>14</title>
<path fill="none" stroke="#56a2d8" stroke-width="2" stroke-dasharray="5,2" d="M807,-545C807,-545 530,-545 530,-545 524,-545 518,-539 518,-533 518,-533 518,-521 518,-521 518,-515 524,-509 530,-509 530,-509 807,-509 807,-509 813,-509 819,-515 819,-521 819,-521 819,-533 819,-533 819,-539 813,-545 807,-545"/>
<text text-anchor="middle" x="668.5" y="-530" font-family="sans" font-size="10.00" fill="#000000">bowtie_map</text>
<text text-anchor="middle" x="668.5" y="-519" font-family="sans" font-size="10.00" fill="#000000">sample: HBCRACKHiC&#45;K562&#45;DN&#45;TD&#45;R1_GCCAAT_L008_test</text>
</g>
<!-- 14&#45;&gt;13 -->
<g id="edge21" class="edge">
<title>14&#45;&gt;13</title>
<path fill="none" stroke="#c0c0c0" stroke-width="2" d="M668.5,-508.8314C668.5,-501.131 668.5,-491.9743 668.5,-483.4166"/>
<polygon fill="#c0c0c0" stroke="#c0c0c0" stroke-width="2" points="672.0001,-483.4132 668.5,-473.4133 665.0001,-483.4133 672.0001,-483.4132"/>
</g>
</g>
</svg>
