<?xml version="1.0" encoding="UTF-8" standalone="no"?>
<!DOCTYPE svg PUBLIC "-//W3C//DTD SVG 1.1//EN"
 "http://www.w3.org/Graphics/SVG/1.1/DTD/svg11.dtd">
<!-- Generated by graphviz version 2.38.0 (20140413.2041)
 -->
<!-- Title: snakemake_dag Pages: 1 -->
<svg width="309pt" height="332pt"
 viewBox="0.00 0.00 309.00 332.00" xmlns="http://www.w3.org/2000/svg" xmlns:xlink="http://www.w3.org/1999/xlink">
<g id="graph0" class="graph" transform="scale(1 1) rotate(0) translate(4 328)">
<title>snakemake_dag</title>
<polygon fill="white" stroke="none" points="-4,4 -4,-328 305,-328 305,4 -4,4"/>
<!-- 0 -->
<g id="node1" class="node"><title>0</title>
<path fill="none" stroke="#88d856" stroke-width="2" stroke-dasharray="5,2" d="M165.5,-36C165.5,-36 135.5,-36 135.5,-36 129.5,-36 123.5,-30 123.5,-24 123.5,-24 123.5,-12 123.5,-12 123.5,-6 129.5,-0 135.5,-0 135.5,-0 165.5,-0 165.5,-0 171.5,-0 177.5,-6 177.5,-12 177.5,-12 177.5,-24 177.5,-24 177.5,-30 171.5,-36 165.5,-36"/>
<text text-anchor="middle" x="150.5" y="-15.5" font-family="sans" font-size="10.00">all</text>
</g>
<!-- 1 -->
<g id="node2" class="node"><title>1</title>
<path fill="none" stroke="#56d88a" stroke-width="2" stroke-dasharray="5,2" d="M186,-108C186,-108 115,-108 115,-108 109,-108 103,-102 103,-96 103,-96 103,-84 103,-84 103,-78 109,-72 115,-72 115,-72 186,-72 186,-72 192,-72 198,-78 198,-84 198,-84 198,-96 198,-96 198,-102 192,-108 186,-108"/>
<text text-anchor="middle" x="150.5" y="-87.5" font-family="sans" font-size="10.00">filter_near_sites</text>
</g>
<!-- 1&#45;&gt;0 -->
<g id="edge1" class="edge"><title>1&#45;&gt;0</title>
<path fill="none" stroke="grey" stroke-width="2" d="M150.5,-71.6966C150.5,-63.9827 150.5,-54.7125 150.5,-46.1124"/>
<polygon fill="grey" stroke="grey" stroke-width="2" points="154,-46.1043 150.5,-36.1043 147,-46.1044 154,-46.1043"/>
</g>
<!-- 2 -->
<g id="node3" class="node"><title>2</title>
<path fill="none" stroke="#56c1d8" stroke-width="2" stroke-dasharray="5,2" d="M167.5,-180C167.5,-180 133.5,-180 133.5,-180 127.5,-180 121.5,-174 121.5,-168 121.5,-168 121.5,-156 121.5,-156 121.5,-150 127.5,-144 133.5,-144 133.5,-144 167.5,-144 167.5,-144 173.5,-144 179.5,-150 179.5,-156 179.5,-156 179.5,-168 179.5,-168 179.5,-174 173.5,-180 167.5,-180"/>
<text text-anchor="middle" x="150.5" y="-159.5" font-family="sans" font-size="10.00">splitfiles</text>
</g>
<!-- 2&#45;&gt;1 -->
<g id="edge2" class="edge"><title>2&#45;&gt;1</title>
<path fill="none" stroke="grey" stroke-width="2" d="M150.5,-143.697C150.5,-135.983 150.5,-126.712 150.5,-118.112"/>
<polygon fill="grey" stroke="grey" stroke-width="2" points="154,-118.104 150.5,-108.104 147,-118.104 154,-118.104"/>
</g>
<!-- 3 -->
<g id="node4" class="node"><title>3</title>
<path fill="none" stroke="#d8bc56" stroke-width="2" stroke-dasharray="5,2" d="M202.5,-252C202.5,-252 98.5,-252 98.5,-252 92.5,-252 86.5,-246 86.5,-240 86.5,-240 86.5,-228 86.5,-228 86.5,-222 92.5,-216 98.5,-216 98.5,-216 202.5,-216 202.5,-216 208.5,-216 214.5,-222 214.5,-228 214.5,-228 214.5,-240 214.5,-240 214.5,-246 208.5,-252 202.5,-252"/>
<text text-anchor="middle" x="150.5" y="-231.5" font-family="sans" font-size="10.00">remove_multimappers</text>
</g>
<!-- 3&#45;&gt;2 -->
<g id="edge3" class="edge"><title>3&#45;&gt;2</title>
<path fill="none" stroke="grey" stroke-width="2" d="M150.5,-215.697C150.5,-207.983 150.5,-198.712 150.5,-190.112"/>
<polygon fill="grey" stroke="grey" stroke-width="2" points="154,-190.104 150.5,-180.104 147,-190.104 154,-190.104"/>
</g>
<!-- 4 -->
<g id="node5" class="node"><title>4</title>
<path fill="none" stroke="#d85656" stroke-width="2" stroke-dasharray="5,2" d="M289,-324C289,-324 12,-324 12,-324 6,-324 0,-318 0,-312 0,-312 0,-300 0,-300 0,-294 6,-288 12,-288 12,-288 289,-288 289,-288 295,-288 301,-294 301,-300 301,-300 301,-312 301,-312 301,-318 295,-324 289,-324"/>
<text text-anchor="middle" x="150.5" y="-309" font-family="sans" font-size="10.00">bowtie_map</text>
<text text-anchor="middle" x="150.5" y="-298" font-family="sans" font-size="10.00">sample: HBCRACKHiC&#45;K562&#45;DN&#45;TD&#45;R1_GCCAAT_L008_test</text>
</g>
<!-- 4&#45;&gt;3 -->
<g id="edge4" class="edge"><title>4&#45;&gt;3</title>
<path fill="none" stroke="grey" stroke-width="2" d="M150.5,-287.697C150.5,-279.983 150.5,-270.712 150.5,-262.112"/>
<polygon fill="grey" stroke="grey" stroke-width="2" points="154,-262.104 150.5,-252.104 147,-262.104 154,-262.104"/>
</g>
</g>
</svg>
