<?xml version="1.0" encoding="UTF-8" standalone="no"?>
<!DOCTYPE svg PUBLIC "-//W3C//DTD SVG 1.1//EN"
 "http://www.w3.org/Graphics/SVG/1.1/DTD/svg11.dtd">
<!-- Generated by graphviz version 2.38.0 (20140413.2041)
 -->
<!-- Title: snakemake_dag Pages: 1 -->
<svg width="965pt" height="409pt"
 viewBox="0.00 0.00 964.64 409.00" xmlns="http://www.w3.org/2000/svg" xmlns:xlink="http://www.w3.org/1999/xlink">
<g id="graph0" class="graph" transform="scale(1 1) rotate(0) translate(4 405)">
<title>snakemake_dag</title>
<polygon fill="white" stroke="none" points="-4,4 -4,-405 960.639,-405 960.639,4 -4,4"/>
<!-- 0 -->
<g id="node1" class="node"><title>0</title>
<path fill="none" stroke="#569ad8" stroke-width="2" stroke-dasharray="5,2" d="M342.139,-36C342.139,-36 312.139,-36 312.139,-36 306.139,-36 300.139,-30 300.139,-24 300.139,-24 300.139,-12 300.139,-12 300.139,-6 306.139,-0 312.139,-0 312.139,-0 342.139,-0 342.139,-0 348.139,-0 354.139,-6 354.139,-12 354.139,-12 354.139,-24 354.139,-24 354.139,-30 348.139,-36 342.139,-36"/>
<text text-anchor="middle" x="327.139" y="-15.5" font-family="sans" font-size="10.00">all</text>
</g>
<!-- 1 -->
<g id="node2" class="node"><title>1</title>
<path fill="none" stroke="#56d8d8" stroke-width="2" stroke-dasharray="5,2" d="M342.139,-108C342.139,-108 312.139,-108 312.139,-108 306.139,-108 300.139,-102 300.139,-96 300.139,-96 300.139,-84 300.139,-84 300.139,-78 306.139,-72 312.139,-72 312.139,-72 342.139,-72 342.139,-72 348.139,-72 354.139,-78 354.139,-84 354.139,-84 354.139,-96 354.139,-96 354.139,-102 348.139,-108 342.139,-108"/>
<text text-anchor="middle" x="327.139" y="-87.5" font-family="sans" font-size="10.00">merge</text>
</g>
<!-- 1&#45;&gt;0 -->
<g id="edge1" class="edge"><title>1&#45;&gt;0</title>
<path fill="none" stroke="grey" stroke-width="2" d="M327.139,-71.6966C327.139,-63.9827 327.139,-54.7125 327.139,-46.1124"/>
<polygon fill="grey" stroke="grey" stroke-width="2" points="330.639,-46.1043 327.139,-36.1043 323.639,-46.1044 330.639,-46.1043"/>
</g>
<!-- 2 -->
<g id="node3" class="node"><title>2</title>
<path fill="none" stroke="#59d856" stroke-width="2" stroke-dasharray="5,2" d="M306.639,-185C306.639,-185 29.6391,-185 29.6391,-185 23.6391,-185 17.6391,-179 17.6391,-173 17.6391,-173 17.6391,-156 17.6391,-156 17.6391,-150 23.6391,-144 29.6391,-144 29.6391,-144 306.639,-144 306.639,-144 312.639,-144 318.639,-150 318.639,-156 318.639,-156 318.639,-173 318.639,-173 318.639,-179 312.639,-185 306.639,-185"/>
<text text-anchor="middle" x="168.139" y="-173" font-family="sans" font-size="10.00">filter_near_sites</text>
<text text-anchor="middle" x="168.139" y="-162" font-family="sans" font-size="10.00">n: 002</text>
<text text-anchor="middle" x="168.139" y="-151" font-family="sans" font-size="10.00">sample: HBCRACKHiC&#45;K562&#45;DN&#45;TD&#45;R1_GCCAAT_L008_test</text>
</g>
<!-- 2&#45;&gt;1 -->
<g id="edge2" class="edge"><title>2&#45;&gt;1</title>
<path fill="none" stroke="grey" stroke-width="2" d="M211.167,-143.88C236.063,-132.528 267.053,-118.398 290.732,-107.601"/>
<polygon fill="grey" stroke="grey" stroke-width="2" points="292.422,-110.677 300.068,-103.344 289.518,-104.308 292.422,-110.677"/>
</g>
<!-- 3 -->
<g id="node4" class="node"><title>3</title>
<path fill="none" stroke="#56d89a" stroke-width="2" stroke-dasharray="5,2" d="M136.639,-257C136.639,-257 89.6391,-257 89.6391,-257 83.6391,-257 77.6391,-251 77.6391,-245 77.6391,-245 77.6391,-233 77.6391,-233 77.6391,-227 83.6391,-221 89.6391,-221 89.6391,-221 136.639,-221 136.639,-221 142.639,-221 148.639,-227 148.639,-233 148.639,-233 148.639,-245 148.639,-245 148.639,-251 142.639,-257 136.639,-257"/>
<text text-anchor="middle" x="113.139" y="-236.5" font-family="sans" font-size="10.00">get_header</text>
</g>
<!-- 3&#45;&gt;1 -->
<g id="edge3" class="edge"><title>3&#45;&gt;1</title>
<path fill="none" stroke="grey" stroke-width="2" d="M77.4875,-230.29C53.3347,-223.012 23.1758,-209.434 8.13912,-185 -1.41138,-169.481 -3.6428,-157.901 8.13912,-144 43.891,-101.818 213.499,-93.1712 289.797,-91.4261"/>
<polygon fill="grey" stroke="grey" stroke-width="2" points="289.993,-94.923 299.92,-91.2229 289.852,-87.9244 289.993,-94.923"/>
</g>
<!-- 4 -->
<g id="node5" class="node"><title>4</title>
<path fill="none" stroke="#59d856" stroke-width="2" stroke-dasharray="5,2" d="M625.639,-185C625.639,-185 348.639,-185 348.639,-185 342.639,-185 336.639,-179 336.639,-173 336.639,-173 336.639,-156 336.639,-156 336.639,-150 342.639,-144 348.639,-144 348.639,-144 625.639,-144 625.639,-144 631.639,-144 637.639,-150 637.639,-156 637.639,-156 637.639,-173 637.639,-173 637.639,-179 631.639,-185 625.639,-185"/>
<text text-anchor="middle" x="487.139" y="-173" font-family="sans" font-size="10.00">filter_near_sites</text>
<text text-anchor="middle" x="487.139" y="-162" font-family="sans" font-size="10.00">n: 001</text>
<text text-anchor="middle" x="487.139" y="-151" font-family="sans" font-size="10.00">sample: HBCRACKHiC&#45;K562&#45;DN&#45;TD&#45;R1_GCCAAT_L008_test</text>
</g>
<!-- 4&#45;&gt;1 -->
<g id="edge4" class="edge"><title>4&#45;&gt;1</title>
<path fill="none" stroke="grey" stroke-width="2" d="M443.841,-143.88C418.788,-132.528 387.604,-118.398 363.775,-107.601"/>
<polygon fill="grey" stroke="grey" stroke-width="2" points="364.933,-104.283 354.38,-103.344 362.044,-110.659 364.933,-104.283"/>
</g>
<!-- 5 -->
<g id="node6" class="node"><title>5</title>
<path fill="none" stroke="#59d856" stroke-width="2" stroke-dasharray="5,2" d="M944.639,-185C944.639,-185 667.639,-185 667.639,-185 661.639,-185 655.639,-179 655.639,-173 655.639,-173 655.639,-156 655.639,-156 655.639,-150 661.639,-144 667.639,-144 667.639,-144 944.639,-144 944.639,-144 950.639,-144 956.639,-150 956.639,-156 956.639,-156 956.639,-173 956.639,-173 956.639,-179 950.639,-185 944.639,-185"/>
<text text-anchor="middle" x="806.139" y="-173" font-family="sans" font-size="10.00">filter_near_sites</text>
<text text-anchor="middle" x="806.139" y="-162" font-family="sans" font-size="10.00">n: 000</text>
<text text-anchor="middle" x="806.139" y="-151" font-family="sans" font-size="10.00">sample: HBCRACKHiC&#45;K562&#45;DN&#45;TD&#45;R1_GCCAAT_L008_test</text>
</g>
<!-- 5&#45;&gt;1 -->
<g id="edge5" class="edge"><title>5&#45;&gt;1</title>
<path fill="none" stroke="grey" stroke-width="2" d="M677.146,-143.976C571.936,-128.052 430.287,-106.612 364.103,-96.5947"/>
<polygon fill="grey" stroke="grey" stroke-width="2" points="364.557,-93.1236 354.145,-95.0876 363.509,-100.045 364.557,-93.1236"/>
</g>
<!-- 6 -->
<g id="node7" class="node"><title>6</title>
<path fill="none" stroke="#d89556" stroke-width="2" stroke-dasharray="5,2" d="M342.139,-257C342.139,-257 312.139,-257 312.139,-257 306.139,-257 300.139,-251 300.139,-245 300.139,-245 300.139,-233 300.139,-233 300.139,-227 306.139,-221 312.139,-221 312.139,-221 342.139,-221 342.139,-221 348.139,-221 354.139,-227 354.139,-233 354.139,-233 354.139,-245 354.139,-245 354.139,-251 348.139,-257 342.139,-257"/>
<text text-anchor="middle" x="327.139" y="-236.5" font-family="sans" font-size="10.00">split</text>
</g>
<!-- 6&#45;&gt;2 -->
<g id="edge6" class="edge"><title>6&#45;&gt;2</title>
<path fill="none" stroke="grey" stroke-width="2" d="M299.806,-225.537C277.964,-215.577 246.716,-201.329 220.143,-189.212"/>
<polygon fill="grey" stroke="grey" stroke-width="2" points="221.512,-185.99 210.961,-185.026 218.608,-192.359 221.512,-185.99"/>
</g>
<!-- 6&#45;&gt;4 -->
<g id="edge8" class="edge"><title>6&#45;&gt;4</title>
<path fill="none" stroke="grey" stroke-width="2" d="M354.281,-225.701C376.213,-215.763 407.74,-201.478 434.578,-189.317"/>
<polygon fill="grey" stroke="grey" stroke-width="2" points="436.188,-192.43 443.852,-185.114 433.299,-186.054 436.188,-192.43"/>
</g>
<!-- 6&#45;&gt;5 -->
<g id="edge9" class="edge"><title>6&#45;&gt;5</title>
<path fill="none" stroke="grey" stroke-width="2" d="M354.265,-233.894C413.375,-224.948 557.294,-203.165 666.959,-186.566"/>
<polygon fill="grey" stroke="grey" stroke-width="2" points="667.763,-189.984 677.126,-185.027 666.715,-183.063 667.763,-189.984"/>
</g>
<!-- 7 -->
<g id="node8" class="node"><title>7</title>
<path fill="none" stroke="#97d856" stroke-width="2" stroke-dasharray="5,2" d="M254.139,-329C254.139,-329 150.139,-329 150.139,-329 144.139,-329 138.139,-323 138.139,-317 138.139,-317 138.139,-305 138.139,-305 138.139,-299 144.139,-293 150.139,-293 150.139,-293 254.139,-293 254.139,-293 260.139,-293 266.139,-299 266.139,-305 266.139,-305 266.139,-317 266.139,-317 266.139,-323 260.139,-329 254.139,-329"/>
<text text-anchor="middle" x="202.139" y="-308.5" font-family="sans" font-size="10.00">remove_multimappers</text>
</g>
<!-- 7&#45;&gt;3 -->
<g id="edge7" class="edge"><title>7&#45;&gt;3</title>
<path fill="none" stroke="grey" stroke-width="2" d="M180.139,-292.697C168.93,-283.881 155.137,-273.032 142.985,-263.474"/>
<polygon fill="grey" stroke="grey" stroke-width="2" points="144.91,-260.535 134.886,-257.104 140.582,-266.038 144.91,-260.535"/>
</g>
<!-- 7&#45;&gt;6 -->
<g id="edge10" class="edge"><title>7&#45;&gt;6</title>
<path fill="none" stroke="grey" stroke-width="2" d="M232.718,-292.876C250.358,-282.998 272.636,-270.522 291.121,-260.17"/>
<polygon fill="grey" stroke="grey" stroke-width="2" points="292.84,-263.219 299.855,-255.279 289.419,-257.112 292.84,-263.219"/>
</g>
<!-- 8 -->
<g id="node9" class="node"><title>8</title>
<path fill="none" stroke="#d6d856" stroke-width="2" stroke-dasharray="5,2" d="M340.639,-401C340.639,-401 63.6391,-401 63.6391,-401 57.6391,-401 51.6391,-395 51.6391,-389 51.6391,-389 51.6391,-377 51.6391,-377 51.6391,-371 57.6391,-365 63.6391,-365 63.6391,-365 340.639,-365 340.639,-365 346.639,-365 352.639,-371 352.639,-377 352.639,-377 352.639,-389 352.639,-389 352.639,-395 346.639,-401 340.639,-401"/>
<text text-anchor="middle" x="202.139" y="-386" font-family="sans" font-size="10.00">bowtie_map</text>
<text text-anchor="middle" x="202.139" y="-375" font-family="sans" font-size="10.00">sample: HBCRACKHiC&#45;K562&#45;DN&#45;TD&#45;R1_GCCAAT_L008_test</text>
</g>
<!-- 8&#45;&gt;7 -->
<g id="edge11" class="edge"><title>8&#45;&gt;7</title>
<path fill="none" stroke="grey" stroke-width="2" d="M202.139,-364.697C202.139,-356.983 202.139,-347.712 202.139,-339.112"/>
<polygon fill="grey" stroke="grey" stroke-width="2" points="205.639,-339.104 202.139,-329.104 198.639,-339.104 205.639,-339.104"/>
</g>
</g>
</svg>
