<?xml version="1.0" encoding="UTF-8" standalone="no"?>
<!DOCTYPE svg PUBLIC "-//W3C//DTD SVG 1.1//EN"
 "http://www.w3.org/Graphics/SVG/1.1/DTD/svg11.dtd">
<!-- Generated by graphviz version 2.40.1 (20161225.0304)
 -->
<!-- Title: snakemake_dag Pages: 1 -->
<svg width="548pt" height="481pt"
 viewBox="0.00 0.00 548.00 481.00" xmlns="http://www.w3.org/2000/svg" xmlns:xlink="http://www.w3.org/1999/xlink">
<g id="graph0" class="graph" transform="scale(1 1) rotate(0) translate(4 477)">
<title>snakemake_dag</title>
<polygon fill="#ffffff" stroke="transparent" points="-4,4 -4,-477 544,-477 544,4 -4,4"/>
<!-- 0 -->
<g id="node1" class="node">
<title>0</title>
<path fill="none" stroke="#d8c356" stroke-width="2" stroke-dasharray="5,2" d="M247,-108C247,-108 128,-108 128,-108 122,-108 116,-102 116,-96 116,-96 116,-84 116,-84 116,-78 122,-72 128,-72 128,-72 247,-72 247,-72 253,-72 259,-78 259,-84 259,-84 259,-96 259,-96 259,-102 253,-108 247,-108"/>
<text text-anchor="middle" x="187.5" y="-87.5" font-family="sans" font-size="10.00" fill="#000000">plot_distance_distribution</text>
</g>
<!-- 1 -->
<g id="node2" class="node">
<title>1</title>
<path fill="none" stroke="#78d856" stroke-width="2" stroke-dasharray="5,2" d="M528,-36C528,-36 401,-36 401,-36 395,-36 389,-30 389,-24 389,-24 389,-12 389,-12 389,-6 395,0 401,0 401,0 528,0 528,0 534,0 540,-6 540,-12 540,-12 540,-24 540,-24 540,-30 534,-36 528,-36"/>
<text text-anchor="middle" x="464.5" y="-15.5" font-family="sans" font-size="10.00" fill="#000000">copy_number_correct_40kb</text>
</g>
<!-- 2 -->
<g id="node3" class="node">
<title>2</title>
<path fill="none" stroke="#d87d56" stroke-width="2" stroke-dasharray="5,2" d="M359,-36C359,-36 226,-36 226,-36 220,-36 214,-30 214,-24 214,-24 214,-12 214,-12 214,-6 220,0 226,0 226,0 359,0 359,0 365,0 371,-6 371,-12 371,-12 371,-24 371,-24 371,-30 365,-36 359,-36"/>
<text text-anchor="middle" x="292.5" y="-15.5" font-family="sans" font-size="10.00" fill="#000000">copy_number_correct_500kb</text>
</g>
<!-- 3 -->
<g id="node4" class="node">
<title>3</title>
<path fill="none" stroke="#56c9d8" stroke-width="2" stroke-dasharray="5,2" d="M225.5,-180C225.5,-180 149.5,-180 149.5,-180 143.5,-180 137.5,-174 137.5,-168 137.5,-168 137.5,-156 137.5,-156 137.5,-150 143.5,-144 149.5,-144 149.5,-144 225.5,-144 225.5,-144 231.5,-144 237.5,-150 237.5,-156 237.5,-156 237.5,-168 237.5,-168 237.5,-174 231.5,-180 225.5,-180"/>
<text text-anchor="middle" x="187.5" y="-159.5" font-family="sans" font-size="10.00" fill="#000000">merge_distances</text>
</g>
<!-- 3&#45;&gt;0 -->
<g id="edge1" class="edge">
<title>3&#45;&gt;0</title>
<path fill="none" stroke="#c0c0c0" stroke-width="2" d="M187.5,-143.8314C187.5,-136.131 187.5,-126.9743 187.5,-118.4166"/>
<polygon fill="#c0c0c0" stroke="#c0c0c0" stroke-width="2" points="191.0001,-118.4132 187.5,-108.4133 184.0001,-118.4133 191.0001,-118.4132"/>
</g>
<!-- 4 -->
<g id="node5" class="node">
<title>4</title>
<path fill="none" stroke="#59d856" stroke-width="2" stroke-dasharray="5,2" d="M460,-108C460,-108 423,-108 423,-108 417,-108 411,-102 411,-96 411,-96 411,-84 411,-84 411,-78 417,-72 423,-72 423,-72 460,-72 460,-72 466,-72 472,-78 472,-84 472,-84 472,-96 472,-96 472,-102 466,-108 460,-108"/>
<text text-anchor="middle" x="441.5" y="-87.5" font-family="sans" font-size="10.00" fill="#000000">bin_40kb</text>
</g>
<!-- 4&#45;&gt;1 -->
<g id="edge2" class="edge">
<title>4&#45;&gt;1</title>
<path fill="none" stroke="#c0c0c0" stroke-width="2" d="M447.3039,-71.8314C449.7908,-64.0463 452.7531,-54.7729 455.5125,-46.1347"/>
<polygon fill="#c0c0c0" stroke="#c0c0c0" stroke-width="2" points="458.909,-47.0041 458.618,-36.4133 452.2409,-44.874 458.909,-47.0041"/>
</g>
<!-- 5 -->
<g id="node6" class="node">
<title>5</title>
<path fill="none" stroke="#d8a456" stroke-width="2" stroke-dasharray="5,2" d="M336,-108C336,-108 293,-108 293,-108 287,-108 281,-102 281,-96 281,-96 281,-84 281,-84 281,-78 287,-72 293,-72 293,-72 336,-72 336,-72 342,-72 348,-78 348,-84 348,-84 348,-96 348,-96 348,-102 342,-108 336,-108"/>
<text text-anchor="middle" x="314.5" y="-87.5" font-family="sans" font-size="10.00" fill="#000000">bin_500kb</text>
</g>
<!-- 5&#45;&gt;2 -->
<g id="edge3" class="edge">
<title>5&#45;&gt;2</title>
<path fill="none" stroke="#c0c0c0" stroke-width="2" d="M308.9485,-71.8314C306.5697,-64.0463 303.7362,-54.7729 301.0967,-46.1347"/>
<polygon fill="#c0c0c0" stroke="#c0c0c0" stroke-width="2" points="304.3958,-44.954 298.1263,-36.4133 297.7013,-46.9996 304.3958,-44.954"/>
</g>
<!-- 6 -->
<g id="node7" class="node">
<title>6</title>
<path fill="none" stroke="#9fd856" stroke-width="2" stroke-dasharray="5,2" d="M101,-257C101,-257 12,-257 12,-257 6,-257 0,-251 0,-245 0,-245 0,-228 0,-228 0,-222 6,-216 12,-216 12,-216 101,-216 101,-216 107,-216 113,-222 113,-228 113,-228 113,-245 113,-245 113,-251 107,-257 101,-257"/>
<text text-anchor="middle" x="56.5" y="-245" font-family="sans" font-size="10.00" fill="#000000">filter_near_sites</text>
<text text-anchor="middle" x="56.5" y="-234" font-family="sans" font-size="10.00" fill="#000000">n: 000</text>
<text text-anchor="middle" x="56.5" y="-223" font-family="sans" font-size="10.00" fill="#000000">sample: SAMPLE_ID</text>
</g>
<!-- 6&#45;&gt;3 -->
<g id="edge4" class="edge">
<title>6&#45;&gt;3</title>
<path fill="none" stroke="#c0c0c0" stroke-width="2" d="M92.6431,-215.9453C109.4108,-206.4095 129.4149,-195.0332 146.7206,-185.1913"/>
<polygon fill="#c0c0c0" stroke="#c0c0c0" stroke-width="2" points="148.5307,-188.1884 155.4931,-180.2024 145.0702,-182.1036 148.5307,-188.1884"/>
</g>
<!-- 9 -->
<g id="node10" class="node">
<title>9</title>
<path fill="none" stroke="#d85656" stroke-width="2" stroke-dasharray="5,2" d="M344.5,-180C344.5,-180 288.5,-180 288.5,-180 282.5,-180 276.5,-174 276.5,-168 276.5,-168 276.5,-156 276.5,-156 276.5,-150 282.5,-144 288.5,-144 288.5,-144 344.5,-144 344.5,-144 350.5,-144 356.5,-150 356.5,-156 356.5,-156 356.5,-168 356.5,-168 356.5,-174 350.5,-180 344.5,-180"/>
<text text-anchor="middle" x="316.5" y="-159.5" font-family="sans" font-size="10.00" fill="#000000">merge_sams</text>
</g>
<!-- 6&#45;&gt;9 -->
<g id="edge12" class="edge">
<title>6&#45;&gt;9</title>
<path fill="none" stroke="#c0c0c0" stroke-width="2" d="M113.1841,-218.493C115.9933,-217.6413 118.777,-216.8062 121.5,-216 170.6126,-201.4601 227.0379,-185.9653 266.5137,-175.3201"/>
<polygon fill="#c0c0c0" stroke="#c0c0c0" stroke-width="2" points="267.6743,-178.6324 276.4214,-172.6543 265.8554,-171.8728 267.6743,-178.6324"/>
</g>
<!-- 7 -->
<g id="node8" class="node">
<title>7</title>
<path fill="none" stroke="#9fd856" stroke-width="2" stroke-dasharray="5,2" d="M232,-257C232,-257 143,-257 143,-257 137,-257 131,-251 131,-245 131,-245 131,-228 131,-228 131,-222 137,-216 143,-216 143,-216 232,-216 232,-216 238,-216 244,-222 244,-228 244,-228 244,-245 244,-245 244,-251 238,-257 232,-257"/>
<text text-anchor="middle" x="187.5" y="-245" font-family="sans" font-size="10.00" fill="#000000">filter_near_sites</text>
<text text-anchor="middle" x="187.5" y="-234" font-family="sans" font-size="10.00" fill="#000000">n: 002</text>
<text text-anchor="middle" x="187.5" y="-223" font-family="sans" font-size="10.00" fill="#000000">sample: SAMPLE_ID</text>
</g>
<!-- 7&#45;&gt;3 -->
<g id="edge5" class="edge">
<title>7&#45;&gt;3</title>
<path fill="none" stroke="#c0c0c0" stroke-width="2" d="M187.5,-215.7476C187.5,-207.8767 187.5,-198.7743 187.5,-190.3232"/>
<polygon fill="#c0c0c0" stroke="#c0c0c0" stroke-width="2" points="191.0001,-190.1086 187.5,-180.1087 184.0001,-190.1087 191.0001,-190.1086"/>
</g>
<!-- 7&#45;&gt;9 -->
<g id="edge14" class="edge">
<title>7&#45;&gt;9</title>
<path fill="none" stroke="#c0c0c0" stroke-width="2" d="M223.0913,-215.9453C239.4515,-206.497 258.9405,-195.2417 275.8735,-185.4626"/>
<polygon fill="#c0c0c0" stroke="#c0c0c0" stroke-width="2" points="278.0725,-188.2344 284.9817,-180.2024 274.5717,-182.1727 278.0725,-188.2344"/>
</g>
<!-- 8 -->
<g id="node9" class="node">
<title>8</title>
<path fill="none" stroke="#9fd856" stroke-width="2" stroke-dasharray="5,2" d="M363,-257C363,-257 274,-257 274,-257 268,-257 262,-251 262,-245 262,-245 262,-228 262,-228 262,-222 268,-216 274,-216 274,-216 363,-216 363,-216 369,-216 375,-222 375,-228 375,-228 375,-245 375,-245 375,-251 369,-257 363,-257"/>
<text text-anchor="middle" x="318.5" y="-245" font-family="sans" font-size="10.00" fill="#000000">filter_near_sites</text>
<text text-anchor="middle" x="318.5" y="-234" font-family="sans" font-size="10.00" fill="#000000">n: 001</text>
<text text-anchor="middle" x="318.5" y="-223" font-family="sans" font-size="10.00" fill="#000000">sample: SAMPLE_ID</text>
</g>
<!-- 8&#45;&gt;3 -->
<g id="edge6" class="edge">
<title>8&#45;&gt;3</title>
<path fill="none" stroke="#c0c0c0" stroke-width="2" d="M282.3569,-215.9453C265.5892,-206.4095 245.5851,-195.0332 228.2794,-185.1913"/>
<polygon fill="#c0c0c0" stroke="#c0c0c0" stroke-width="2" points="229.9298,-182.1036 219.5069,-180.2024 226.4693,-188.1884 229.9298,-182.1036"/>
</g>
<!-- 8&#45;&gt;9 -->
<g id="edge15" class="edge">
<title>8&#45;&gt;9</title>
<path fill="none" stroke="#c0c0c0" stroke-width="2" d="M317.9429,-215.7476C317.7316,-207.8767 317.4872,-198.7743 317.2604,-190.3232"/>
<polygon fill="#c0c0c0" stroke="#c0c0c0" stroke-width="2" points="320.7533,-190.0111 316.9861,-180.1087 313.7559,-190.199 320.7533,-190.0111"/>
</g>
<!-- 9&#45;&gt;4 -->
<g id="edge7" class="edge">
<title>9&#45;&gt;4</title>
<path fill="none" stroke="#c0c0c0" stroke-width="2" d="M348.0428,-143.8314C364.4254,-134.3949 384.6046,-122.7717 402.0145,-112.7436"/>
<polygon fill="#c0c0c0" stroke="#c0c0c0" stroke-width="2" points="403.9132,-115.6892 410.8315,-107.665 400.4193,-109.6234 403.9132,-115.6892"/>
</g>
<!-- 9&#45;&gt;5 -->
<g id="edge8" class="edge">
<title>9&#45;&gt;5</title>
<path fill="none" stroke="#c0c0c0" stroke-width="2" d="M315.9953,-143.8314C315.7814,-136.131 315.5271,-126.9743 315.2894,-118.4166"/>
<polygon fill="#c0c0c0" stroke="#c0c0c0" stroke-width="2" points="318.7879,-118.3122 315.0115,-108.4133 311.7906,-118.5066 318.7879,-118.3122"/>
</g>
<!-- 10 -->
<g id="node11" class="node">
<title>10</title>
<path fill="none" stroke="#56d8a2" stroke-width="2" stroke-dasharray="5,2" d="M267.5,-329C267.5,-329 237.5,-329 237.5,-329 231.5,-329 225.5,-323 225.5,-317 225.5,-317 225.5,-305 225.5,-305 225.5,-299 231.5,-293 237.5,-293 237.5,-293 267.5,-293 267.5,-293 273.5,-293 279.5,-299 279.5,-305 279.5,-305 279.5,-317 279.5,-317 279.5,-323 273.5,-329 267.5,-329"/>
<text text-anchor="middle" x="252.5" y="-308.5" font-family="sans" font-size="10.00" fill="#000000">split</text>
</g>
<!-- 10&#45;&gt;6 -->
<g id="edge9" class="edge">
<title>10&#45;&gt;6</title>
<path fill="none" stroke="#c0c0c0" stroke-width="2" d="M225.247,-300.6411C198.1143,-290.3279 155.4892,-274.126 119.869,-260.5867"/>
<polygon fill="#c0c0c0" stroke="#c0c0c0" stroke-width="2" points="121.0948,-257.3083 110.5037,-257.0269 118.6076,-263.8516 121.0948,-257.3083"/>
</g>
<!-- 10&#45;&gt;7 -->
<g id="edge10" class="edge">
<title>10&#45;&gt;7</title>
<path fill="none" stroke="#c0c0c0" stroke-width="2" d="M236.7653,-292.9656C229.427,-284.5548 220.5183,-274.3441 212.3053,-264.9306"/>
<polygon fill="#c0c0c0" stroke="#c0c0c0" stroke-width="2" points="214.8313,-262.502 205.6196,-257.2679 209.5566,-267.1041 214.8313,-262.502"/>
</g>
<!-- 10&#45;&gt;8 -->
<g id="edge11" class="edge">
<title>10&#45;&gt;8</title>
<path fill="none" stroke="#c0c0c0" stroke-width="2" d="M268.4768,-292.9656C275.928,-284.5548 284.9737,-274.3441 293.3131,-264.9306"/>
<polygon fill="#c0c0c0" stroke="#c0c0c0" stroke-width="2" points="296.0902,-267.074 300.1016,-257.2679 290.8506,-262.4322 296.0902,-267.074"/>
</g>
<!-- 11 -->
<g id="node12" class="node">
<title>11</title>
<path fill="none" stroke="#567bd8" stroke-width="2" stroke-dasharray="5,2" d="M392,-329C392,-329 345,-329 345,-329 339,-329 333,-323 333,-317 333,-317 333,-305 333,-305 333,-299 339,-293 345,-293 345,-293 392,-293 392,-293 398,-293 404,-299 404,-305 404,-305 404,-317 404,-317 404,-323 398,-329 392,-329"/>
<text text-anchor="middle" x="368.5" y="-308.5" font-family="sans" font-size="10.00" fill="#000000">get_header</text>
</g>
<!-- 11&#45;&gt;9 -->
<g id="edge13" class="edge">
<title>11&#45;&gt;9</title>
<path fill="none" stroke="#c0c0c0" stroke-width="2" d="M377.3456,-292.9432C385.7214,-273.134 395.3896,-240.8531 383.5,-216 377.904,-204.3025 368.4007,-194.3295 358.2828,-186.2563"/>
<polygon fill="#c0c0c0" stroke="#c0c0c0" stroke-width="2" points="360.218,-183.3341 350.0997,-180.1924 356.0504,-188.9583 360.218,-183.3341"/>
</g>
<!-- 12 -->
<g id="node13" class="node">
<title>12</title>
<path fill="none" stroke="#56d8c9" stroke-width="2" stroke-dasharray="5,2" d="M344.5,-401C344.5,-401 240.5,-401 240.5,-401 234.5,-401 228.5,-395 228.5,-389 228.5,-389 228.5,-377 228.5,-377 228.5,-371 234.5,-365 240.5,-365 240.5,-365 344.5,-365 344.5,-365 350.5,-365 356.5,-371 356.5,-377 356.5,-377 356.5,-389 356.5,-389 356.5,-395 350.5,-401 344.5,-401"/>
<text text-anchor="middle" x="292.5" y="-380.5" font-family="sans" font-size="10.00" fill="#000000">remove_multimappers</text>
</g>
<!-- 12&#45;&gt;10 -->
<g id="edge16" class="edge">
<title>12&#45;&gt;10</title>
<path fill="none" stroke="#c0c0c0" stroke-width="2" d="M282.4063,-364.8314C277.9403,-356.7925 272.5925,-347.1666 267.6621,-338.2918"/>
<polygon fill="#c0c0c0" stroke="#c0c0c0" stroke-width="2" points="270.6456,-336.4551 262.7296,-329.4133 264.5265,-339.8546 270.6456,-336.4551"/>
</g>
<!-- 12&#45;&gt;11 -->
<g id="edge17" class="edge">
<title>12&#45;&gt;11</title>
<path fill="none" stroke="#c0c0c0" stroke-width="2" d="M311.678,-364.8314C320.8588,-356.1337 332.0006,-345.5783 341.9776,-336.1265"/>
<polygon fill="#c0c0c0" stroke="#c0c0c0" stroke-width="2" points="344.4757,-338.5811 349.3281,-329.1628 339.6615,-333.4995 344.4757,-338.5811"/>
</g>
<!-- 13 -->
<g id="node14" class="node">
<title>13</title>
<path fill="none" stroke="#56a2d8" stroke-width="2" stroke-dasharray="5,2" d="M337,-473C337,-473 248,-473 248,-473 242,-473 236,-467 236,-461 236,-461 236,-449 236,-449 236,-443 242,-437 248,-437 248,-437 337,-437 337,-437 343,-437 349,-443 349,-449 349,-449 349,-461 349,-461 349,-467 343,-473 337,-473"/>
<text text-anchor="middle" x="292.5" y="-458" font-family="sans" font-size="10.00" fill="#000000">bowtie_map</text>
<text text-anchor="middle" x="292.5" y="-447" font-family="sans" font-size="10.00" fill="#000000">sample: SAMPLE_ID</text>
</g>
<!-- 13&#45;&gt;12 -->
<g id="edge18" class="edge">
<title>13&#45;&gt;12</title>
<path fill="none" stroke="#c0c0c0" stroke-width="2" d="M292.5,-436.8314C292.5,-429.131 292.5,-419.9743 292.5,-411.4166"/>
<polygon fill="#c0c0c0" stroke="#c0c0c0" stroke-width="2" points="296.0001,-411.4132 292.5,-401.4133 289.0001,-411.4133 296.0001,-411.4132"/>
</g>
</g>
</svg>
